<svg width="33" height="33" viewBox="0 0 33 33" fill="none" xmlns="http://www.w3.org/2000/svg">
<path id="Github - Logo" d="M21.3482 31.9618L21.3808 31.9553L21.4122 31.9445C27.5713 29.8398 32 23.8864 32 16.8794C32 8.12058 25.0723 1 16.5 1C7.9292 1 1 8.12055 1 16.8794C1 23.888 5.43331 29.8445 11.5971 31.9461L11.6304 31.9575L11.665 31.964C12.1573 32.0578 12.5876 31.9594 12.8928 31.6742C13.181 31.4049 13.283 31.0375 13.283 30.7331C13.283 30.5531 13.2797 30.1683 13.2755 29.6719C13.2712 29.1558 13.2658 28.5193 13.262 27.8672L13.2584 27.2472L12.6532 27.3821C10.6882 27.82 9.5818 27.3812 8.97503 26.9149C8.66233 26.6746 8.46081 26.4107 8.33842 26.2096C8.27732 26.1092 8.23658 26.0255 8.21214 25.9699C8.19995 25.9422 8.1919 25.9217 8.18747 25.9099L8.18359 25.8993L8.18349 25.899L8.18344 25.8988L8.18334 25.8985L8.18031 25.889L8.17527 25.8759C7.80983 24.9242 7.35679 24.304 6.97852 23.915C6.79 23.7211 6.6217 23.5864 6.49475 23.4974C6.43556 23.4559 6.38542 23.4243 6.34651 23.4014C6.82706 23.498 7.21614 23.77 7.50815 24.0592C7.67543 24.2249 7.80269 24.3885 7.88754 24.51C7.92974 24.5704 7.96079 24.6195 7.98046 24.6519C7.99029 24.6681 7.99722 24.68 8.00125 24.6871L8.00447 24.6928L8.00435 24.6929L8.01047 24.7036C8.76057 26.0213 9.78356 26.5322 10.7631 26.6217C11.7063 26.7078 12.5571 26.4002 13.0188 26.1879L13.2685 26.0732L13.3055 25.8009C13.4276 24.9009 13.7716 24.3406 14.096 24.0503L14.9233 23.3097L13.8204 23.1811C12.1855 22.9904 10.5999 22.5784 9.42289 21.5625C8.26785 20.5655 7.4285 18.9172 7.4285 16.0766C7.4285 14.5236 7.96704 13.2699 8.84701 12.2811L9.05213 12.0506L8.93811 11.764C8.81923 11.465 8.37702 10.1588 8.98317 8.34283C9.10416 8.34502 9.27603 8.36042 9.50164 8.4092C10.096 8.53773 11.0674 8.89904 12.4605 9.86562L12.6548 10.0005L12.8823 9.93575C14.0317 9.60879 15.2679 9.44301 16.5 9.43701C17.7322 9.44301 18.9699 9.6088 20.1209 9.93579L20.3484 10.0004L20.5427 9.86548C21.9343 8.89889 22.9043 8.53764 23.4974 8.40917C23.7223 8.36045 23.8936 8.34505 24.0143 8.34284C24.6231 10.1591 24.1804 11.465 24.061 11.7624L23.9453 12.0505L24.1523 12.282C25.0354 13.2696 25.57 14.5227 25.57 16.0766C25.57 18.9248 24.7288 20.5711 23.5719 21.5637C22.3925 22.5756 20.8032 22.9814 19.1628 23.1685L18.0481 23.2956L18.888 24.0395C19.2956 24.4006 19.738 25.1861 19.738 26.5122C19.738 27.5398 19.7335 28.4671 19.729 29.2012C19.7275 29.4465 19.726 29.6707 19.7247 29.87C19.722 30.2656 19.72 30.5632 19.72 30.7331C19.72 31.0347 19.8181 31.4057 20.1082 31.6775C20.4165 31.9664 20.8517 32.0607 21.3482 31.9618Z" fill="#FCA311" stroke="#14213D"/>
</svg>
