<svg width="37" height="34" viewBox="0 0 37 34" fill="none" xmlns="http://www.w3.org/2000/svg">
<g id="Twitter - Logo">
<mask id="path-1-outside-1_1_112" maskUnits="userSpaceOnUse" x="0.5" y="0.5" width="37" height="33" fill="black">
<rect fill="white" x="0.5" y="0.5" width="37" height="33"/>
<path fill-rule="evenodd" clip-rule="evenodd" d="M13.935 32.5C25.2555 32.5 31.4475 20.9565 31.4475 10.9473C31.4475 10.6187 31.4475 10.2926 31.4295 9.96767C32.634 8.89695 33.6735 7.56755 34.5 6.04641C33.378 6.6593 32.1855 7.06124 30.966 7.23845C32.25 6.29143 33.2115 4.80361 33.672 3.04802C32.463 3.93043 31.1415 4.55319 29.763 4.88734C27.432 1.83767 23.5335 1.68991 21.054 4.55866C19.4565 6.40839 18.777 9.16631 19.2735 11.7969C14.325 11.4905 9.714 8.61439 6.588 3.88299C4.9545 7.34431 5.79 11.7707 8.4945 13.9933C7.515 13.9582 6.5565 13.6337 5.7 13.0466V13.1428C5.7015 16.7481 7.767 19.8525 10.638 20.5669C9.732 20.8715 8.781 20.9156 7.86 20.696C8.6655 23.7825 10.977 25.8966 13.6095 25.9576C11.43 28.0657 8.7375 29.2105 5.9655 29.2068C5.4765 29.2049 4.9875 29.1698 4.5 29.0979C7.3155 31.3205 10.59 32.5 13.935 32.4945"/>
</mask>
<path fill-rule="evenodd" clip-rule="evenodd" d="M13.935 32.5C25.2555 32.5 31.4475 20.9565 31.4475 10.9473C31.4475 10.6187 31.4475 10.2926 31.4295 9.96767C32.634 8.89695 33.6735 7.56755 34.5 6.04641C33.378 6.6593 32.1855 7.06124 30.966 7.23845C32.25 6.29143 33.2115 4.80361 33.672 3.04802C32.463 3.93043 31.1415 4.55319 29.763 4.88734C27.432 1.83767 23.5335 1.68991 21.054 4.55866C19.4565 6.40839 18.777 9.16631 19.2735 11.7969C14.325 11.4905 9.714 8.61439 6.588 3.88299C4.9545 7.34431 5.79 11.7707 8.4945 13.9933C7.515 13.9582 6.5565 13.6337 5.7 13.0466V13.1428C5.7015 16.7481 7.767 19.8525 10.638 20.5669C9.732 20.8715 8.781 20.9156 7.86 20.696C8.6655 23.7825 10.977 25.8966 13.6095 25.9576C11.43 28.0657 8.7375 29.2105 5.9655 29.2068C5.4765 29.2049 4.9875 29.1698 4.5 29.0979C7.3155 31.3205 10.59 32.5 13.935 32.4945" fill="#FCA311"/>
<path d="M31.4295 9.96767L30.7651 9.22027L30.4043 9.54099L30.431 10.023L31.4295 9.96767ZM34.5 6.04641L35.3787 6.52384L36.9989 3.54195L34.0206 5.16881L34.5 6.04641ZM30.966 7.23845L30.3724 6.43366L31.1098 8.22805L30.966 7.23845ZM33.672 3.04802L34.6393 3.30175L35.3523 0.583647L33.0825 2.24028L33.672 3.04802ZM29.763 4.88734L28.9685 5.49461L29.3646 6.01287L29.9986 5.8592L29.763 4.88734ZM21.054 4.55866L20.2974 3.90475L20.2972 3.90504L21.054 4.55866ZM19.2735 11.7969L19.2117 12.795L20.4945 12.8744L20.2562 11.6114L19.2735 11.7969ZM6.588 3.88299L7.42234 3.33175L6.44237 1.8485L5.68365 3.4562L6.588 3.88299ZM8.4945 13.9933L8.45871 14.9927L11.4143 15.0985L9.12942 13.2207L8.4945 13.9933ZM5.7 13.0466L6.26534 12.2218L4.7 11.1489V13.0466H5.7ZM5.7 13.1428H4.7L4.7 13.1432L5.7 13.1428ZM10.638 20.5669L10.9567 21.5147L14.2027 20.4234L10.8795 19.5965L10.638 20.5669ZM7.86 20.696L8.09201 19.7232L6.47181 19.3368L6.89241 20.9485L7.86 20.696ZM13.6095 25.9576L14.3047 26.6763L16.0242 25.0132L13.6326 24.9578L13.6095 25.9576ZM5.9655 29.2068L5.9617 30.2068L5.96417 30.2068L5.9655 29.2068ZM4.5 29.0979L4.64607 28.1086L0.939719 27.5613L3.88038 29.8828L4.5 29.0979ZM13.935 33.5C19.9802 33.5 24.6382 30.4033 27.7494 26.0594C30.8464 21.7354 32.4475 16.1386 32.4475 10.9473H30.4475C30.4475 15.7652 28.9526 20.9448 26.1235 24.8948C23.3086 28.825 19.2103 31.5 13.935 31.5V33.5ZM32.4475 10.9473C32.4475 10.6234 32.4478 10.2695 32.428 9.91235L30.431 10.023C30.4472 10.3156 30.4475 10.614 30.4475 10.9473H32.4475ZM32.0939 10.7151C33.3916 9.56146 34.5014 8.13846 35.3787 6.52384L33.6213 5.56899C32.8456 6.99663 31.8764 8.23245 30.7651 9.22027L32.0939 10.7151ZM34.0206 5.16881C32.9992 5.72677 31.9199 6.08933 30.8222 6.24884L31.1098 8.22805C32.4511 8.03315 33.7568 7.59184 34.9794 6.92402L34.0206 5.16881ZM31.5596 8.04323C33.0522 6.94237 34.1291 5.24665 34.6393 3.30175L32.7047 2.7943C32.2939 4.36057 31.4478 5.64048 30.3724 6.43366L31.5596 8.04323ZM33.0825 2.24028C31.9731 3.04999 30.7708 3.6141 29.5274 3.91549L29.9986 5.8592C31.5122 5.49228 32.9529 4.81087 34.2615 3.85576L33.0825 2.24028ZM30.5575 4.28007C29.229 2.54203 27.4047 1.57621 25.5019 1.50431C23.5974 1.43234 21.7187 2.26032 20.2974 3.90475L21.8106 5.21258C22.8688 3.98826 24.1791 3.45574 25.4264 3.50288C26.6756 3.55009 27.966 4.18298 28.9685 5.49461L30.5575 4.28007ZM20.2972 3.90504C18.48 6.0091 17.7439 9.08442 18.2908 11.9824L20.2562 11.6114C19.8101 9.24821 20.433 6.80768 21.8108 5.21228L20.2972 3.90504ZM19.3353 10.7988C14.7481 10.5148 10.4036 7.84403 7.42234 3.33175L5.75366 4.43424C9.02443 9.38476 13.9019 12.4662 19.2117 12.795L19.3353 10.7988ZM5.68365 3.4562C3.88009 7.27787 4.75705 12.2161 7.85958 14.7659L9.12942 13.2207C6.82295 11.3252 6.02891 7.41074 7.49235 4.30979L5.68365 3.4562ZM8.53029 12.9939C7.75159 12.966 6.97504 12.7082 6.26534 12.2218L5.13466 13.8715C6.13796 14.5591 7.27841 14.9504 8.45871 14.9927L8.53029 12.9939ZM4.7 13.0466V13.1428H6.7V13.0466H4.7ZM4.7 13.1432C4.70163 17.0716 6.96038 20.6822 10.3965 21.5373L10.8795 19.5965C8.57362 19.0227 6.70137 16.4245 6.7 13.1423L4.7 13.1432ZM10.3193 19.619C9.58917 19.8645 8.82895 19.899 8.09201 19.7232L7.62799 21.6687C8.73305 21.9322 9.87483 21.8784 10.9567 21.5147L10.3193 19.619ZM6.89241 20.9485C7.77899 24.3458 10.3936 26.8834 13.5864 26.9573L13.6326 24.9578C11.5604 24.9099 9.55201 23.2193 8.82759 20.4434L6.89241 20.9485ZM12.9143 25.2388C10.9023 27.1849 8.45327 28.2101 5.96683 28.2068L5.96417 30.2068C9.02173 30.2109 11.9577 28.9466 14.3047 26.6763L12.9143 25.2388ZM5.9693 28.2068C5.52572 28.2051 5.08434 28.1733 4.64607 28.1086L4.35393 30.0871C4.89066 30.1664 5.42728 30.2048 5.9617 30.2068L5.9693 28.2068ZM3.88038 29.8828C6.85893 32.2341 10.3492 33.5004 13.9367 33.4945L13.9333 31.4945C10.8308 31.4996 7.77207 30.4069 5.11962 28.313L3.88038 29.8828Z" fill="#14213D" mask="url(#path-1-outside-1_1_112)"/>
</g>
</svg>
