<?xml version="1.0" encoding="UTF-8" standalone="no"?>
<svg
   version="1.1"
   x="0px"
   y="0px"
   viewBox="0 0 62.232922 89.900002"
   xml:space="preserve"
   id="svg6"
   sodipodi:docname="jiu-jitsu-sitting.svg"
   width="62.232922"
   height="89.900002"
   inkscape:version="1.3.2 (091e20e, 2023-11-25, custom)"
   xmlns:inkscape="http://www.inkscape.org/namespaces/inkscape"
   xmlns:sodipodi="http://sodipodi.sourceforge.net/DTD/sodipodi-0.dtd"
   xmlns="http://www.w3.org/2000/svg"
   xmlns:svg="http://www.w3.org/2000/svg"><defs
     id="defs6" /><sodipodi:namedview
     id="namedview6"
     pagecolor="#ffffff"
     bordercolor="#000000"
     borderopacity="0.25"
     inkscape:showpageshadow="2"
     inkscape:pageopacity="0.0"
     inkscape:pagecheckerboard="0"
     inkscape:deskcolor="#d1d1d1"
     inkscape:zoom="9.448"
     inkscape:cx="31.170618"
     inkscape:cy="57.525402"
     inkscape:window-width="2560"
     inkscape:window-height="1377"
     inkscape:window-x="-8"
     inkscape:window-y="-8"
     inkscape:window-maximized="1"
     inkscape:current-layer="g5" /><g
     id="g5"
     transform="translate(-18.803044,-5)"
     style="stroke:#7e42b3;stroke-opacity:1"><path
       d="m 34.3,93.6 c 0,0 0,0 0,0 1.8,-4.5 3.2,-9.1 4.9,-13.6 0,0 0,-0.1 0,-0.1 0.2,-0.4 0.3,-0.9 0.5,-1.3 0,-0.1 0.1,-0.2 0.1,-0.3 0.1,-0.4 0.3,-0.8 0.5,-1.2 0.1,-0.2 0.1,-0.3 0.2,-0.5 0.1,-0.4 0.3,-0.7 0.4,-1.1 0.1,-0.2 0.1,-0.4 0.2,-0.5 0.1,-0.3 0.3,-0.7 0.4,-1 0.1,-0.2 0.2,-0.4 0.3,-0.6 0.2,-0.3 0.3,-0.7 0.5,-1 0.1,-0.2 0.2,-0.4 0.3,-0.6 0.2,-0.3 0.4,-0.7 0.6,-1 0.1,-0.2 0.2,-0.3 0.3,-0.5 0.3,-0.5 0.6,-1 0.9,-1.5 C 44,68.7 43.6,68.6 43.2,68.5 43,68.4 42.8,68.4 42.5,68.3 42.4,68.3 42.2,68.2 42.1,68.2 41.9,68.1 41.6,68 41.4,68 c -0.1,0 -0.2,-0.1 -0.3,-0.1 -0.3,-0.1 -0.5,-0.2 -0.7,-0.3 -0.1,0 -0.1,0 -0.2,-0.1 -0.2,-0.1 -0.5,-0.2 -0.7,-0.3 0,0 -0.1,0 -0.1,-0.1 -0.2,-0.1 -0.5,-0.2 -0.7,-0.3 0,0 -0.1,0 -0.1,0 -0.2,-0.1 -0.5,-0.2 -0.7,-0.4 0,0 0,0 -0.1,0 -0.2,-0.1 -0.4,-0.3 -0.7,-0.4 0,0 0,0 0,0 0,0 -0.1,0 -0.1,-0.1 l 0.3,-3.4 c 0.1,0.1 0.2,0.1 0.3,0.2 0.8,0.5 1.6,0.9 2.4,1.2 0,0 0,0 0.1,0 0.4,0.2 0.8,0.3 1.2,0.5 0,0 0.1,0 0.1,0.1 0.4,0.1 0.7,0.3 1.1,0.4 0.1,0 0.2,0 0.3,0.1 0.3,0.1 0.7,0.2 1,0.3 0.1,0 0.3,0.1 0.4,0.1 0.3,0.1 0.6,0.1 0.9,0.2 0.2,0 0.4,0.1 0.7,0.1 0.2,0 0.4,0.1 0.7,0.1 0.5,0 0.9,0.1 1.4,0.1 0.5,0 1,0 1.4,-0.1 0.3,0 0.7,-0.1 1,-0.1 0.1,0 0.3,0 0.4,-0.1 0.5,-0.1 1,-0.2 1.5,-0.3 0,0 0,0 0,0 2.6,-0.6 5.3,-1.8 8.3,-3.6 0.1,0 0.1,-0.1 0.2,-0.1 l 1.5,3.1 c 0,0 -0.1,0.1 -0.4,0.2 -0.4,0.2 -1.1,0.6 -1.9,1 0,0 0,0 0,0 -0.2,0.1 -0.3,0.1 -0.5,0.2 0,0 -0.1,0 -0.1,0 -0.1,0.1 -0.3,0.1 -0.4,0.2 0,0 -0.1,0 -0.1,0.1 -0.1,0.1 -0.3,0.1 -0.4,0.2 -0.1,0 -0.1,0 -0.2,0.1 -0.1,0.1 -0.3,0.1 -0.4,0.2 -0.1,0 -0.1,0 -0.2,0.1 -0.1,0.1 -0.3,0.1 -0.4,0.2 -0.1,0 -0.1,0.1 -0.2,0.1 -0.1,0.1 -0.3,0.1 -0.4,0.2 -0.1,0 -0.1,0 -0.2,0.1 -0.1,0.1 -0.3,0.1 -0.4,0.2 -0.1,0 -0.1,0 -0.2,0.1 -0.2,0.1 -0.4,0.1 -0.5,0.2 2.3,2.3 3.8,6.2 4.8,9.2 0.1,0.2 0.1,0.4 0.2,0.6 0,0.1 0,0.1 0.1,0.2 0,0.2 0.1,0.3 0.1,0.5 0,0.1 0,0.1 0.1,0.2 0.1,0.2 0.1,0.4 0.1,0.6 0,0 0,0.1 0,0.1 0.1,0.2 0.1,0.5 0.2,0.8 0,0.1 0,0.1 0,0.2 0,0.2 0.1,0.4 0.1,0.6 0,0.1 0,0.2 0.1,0.3 0,0.2 0.1,0.4 0.1,0.6 0,0.1 0,0.2 0,0.2 0.1,0.3 0.1,0.5 0.2,0.8 0,0.1 0,0.2 0,0.2 0,0.2 0.1,0.4 0.1,0.6 0,0.1 0,0.2 0.1,0.3 0,0.2 0.1,0.4 0.1,0.5 0,0.1 0,0.2 0.1,0.3 0,0.2 0.1,0.4 0.1,0.6 0,0.2 0.1,0.3 0.1,0.5 0,0.2 0.1,0.4 0.1,0.5 0,0.1 0,0.3 0.1,0.4 0,0.2 0.1,0.3 0.1,0.5 0,0.1 0,0.3 0.1,0.4 0,0.2 0.1,0.3 0.1,0.5 0,0.1 0,0.3 0.1,0.4 0,0.2 0.1,0.4 0.1,0.6 0,0.1 0,0.2 0.1,0.3 0,0.2 0,0.3 0.1,0.4 0,0.1 0,0.2 0,0.3 0,0.2 0.1,0.3 0.1,0.5 0,0 0,0.1 0,0.2 0.1,0.3 0.1,0.6 0.1,0.9 0,0 0,0.1 0,0.1 0.2,1.3 0.3,2.3 0.4,2.5 0,0 0,0.1 0,0.1 H 59.8 C 59.7,93.8 59.6,93 59.4,92.2 59.3,91.4 59.1,90.6 59,89.8 c 0.1,-0.2 0,-0.5 0,-0.8 -0.4,-2.3 -0.8,-4.7 -1.2,-7.1 0,0 0,-0.1 0,-0.1 -0.1,-0.8 -0.3,-1.6 -0.4,-2.4 0,-0.1 0,-0.3 -0.1,-0.4 C 57.2,78.4 57.1,77.7 57,77.1 57,76.9 56.9,76.7 56.9,76.5 56.8,75.7 56.7,75 56.6,74.3 56.4,73 56.2,71.7 55.5,70.6 54.9,69.8 54,69.2 53.2,69.2 c -0.4,0 -0.7,0.1 -1,0.4 -1.2,1.1 -2.6,1.3 -4,1.3 -0.1,0 -0.3,0 -0.4,0 0,0 -0.1,0 -0.1,0 -0.8,0 -1.7,0.1 -2,1.3 -0.1,0.6 -0.3,1.2 -0.5,1.8 0,0.2 -0.1,0.3 -0.1,0.5 -0.2,0.6 -0.3,1.1 -0.5,1.7 0,0.1 0,0.1 -0.1,0.2 -0.2,0.6 -0.4,1.2 -0.6,1.9 -0.1,0.2 -0.1,0.3 -0.2,0.5 -0.2,0.5 -0.4,1 -0.6,1.6 0,0.1 -0.1,0.2 -0.1,0.3 -0.2,0.6 -0.5,1.2 -0.7,1.8 -0.1,0.2 -0.1,0.4 -0.2,0.5 -0.2,0.5 -0.4,0.9 -0.5,1.4 -0.1,0.2 -0.2,0.4 -0.2,0.6 -0.1,0.1 -0.1,0.3 -0.2,0.4 -0.4,1.1 -0.8,2.2 -1.3,3.2 0,0.1 -0.1,0.1 -0.1,0.2 -0.2,0.5 -0.4,1 -0.6,1.5 -0.3,0.7 -0.5,1.4 -0.8,2.1 0,0.1 -0.1,0.2 -0.1,0.3 -0.2,0.7 -0.5,1.4 -0.7,2.1 h -3.9 c 0,-0.1 0.1,-0.2 0.1,-0.3 0.3,-0.4 0.4,-0.7 0.5,-0.9 z"
       id="path1"
       style="stroke:#7e42b3;stroke-opacity:1;fill:#4a24a7;fill-opacity:0.41176471" /><path
       d="m 20.8,83.7 c 1.9,-0.8 4,-4.6 4,-4.6 0,0 -0.1,-1.9 -0.4,-3.1 0,-0.2 -0.2,-0.2 -0.4,-0.2 -0.5,0 -1.3,0.2 -1.8,0.3 -0.5,0.1 -0.9,0.1 -1.2,0.1 -1.3,0 -1.4,-0.5 -1.1,-2.5 0.1,-0.7 0.3,-1.4 0.5,-2.1 0.8,-2.5 0.8,-5.1 0.4,-7.6 -0.3,-1.7 -0.2,-3.5 0.1,-5.2 1.1,-6 2.4,-12 5.7,-17.3 0.7,-1.2 1,-2.6 1.6,-3.9 1,-2.1 3.2,-4.1 4.5,-5.8 0.2,-0.2 0.4,-0.4 0.6,-0.6 0.1,-0.1 0.2,-0.1 0.2,-0.2 0.2,-0.1 0.3,-0.2 0.5,-0.3 0.1,-0.1 0.2,-0.1 0.3,-0.2 0.2,-0.1 0.4,-0.2 0.5,-0.3 0.1,-0.1 0.2,-0.1 0.4,-0.2 0.2,-0.1 0.4,-0.2 0.6,-0.3 0.1,-0.1 0.2,-0.1 0.4,-0.2 0.2,-0.1 0.5,-0.2 0.8,-0.3 0.1,0 0.2,-0.1 0.3,-0.1 0.4,-0.1 0.7,-0.2 1.1,-0.4 0.2,-0.1 0.4,-0.1 0.5,-0.2 0.2,-0.1 0.4,-0.1 0.6,-0.2 0.4,-0.1 0.7,-0.2 1.1,-0.3 0.1,0 0.1,0 0.2,-0.1 0.2,2.1 0.8,4.5 2.2,7 0.3,0.5 0.6,1 0.9,1.5 0.7,1.1 1.6,2.5 2.5,4.6 -0.1,0.2 -0.2,0.3 -0.3,0.5 -0.6,0.9 -1.3,1.9 -1.9,2.9 -3.6,5.4 -5.8,13.9 -6.6,17.3 0,0 0,0 0,0 L 37,61.3 c -3.7,-2.1 -3,-6.1 -2.6,-10 -0.8,0.2 -2.1,1.3 -2.3,1.9 -0.3,0.6 -1,3.7 -2.2,5.2 -0.7,0.8 -0.9,1.8 -0.8,2.9 0.1,0.8 0.2,1.8 -0.3,2.4 -0.6,0.9 -0.4,1.6 -0.2,2.4 0.4,1.2 0.4,2.1 -1,2.6 1,1.2 1,1.2 1.6,3.8 0.2,1 1,1.6 1,1.6 0,0 2,-0.9 2.2,-1.2 0.6,-0.9 0.8,-2.2 2.1,-2.5 -0.5,-0.7 -1.8,-0.1 -1.6,-1 0.1,-0.9 1,-1 1.8,-1 0.1,0 0.2,0 0.3,0 0,0 0.1,0 0.1,0 0.8,0 1.4,-0.2 1.8,-0.9 0.2,-0.3 0.3,-0.9 0.3,-0.9 v 0 c 0,0 0,0 0,0 1.8,1.1 3.6,1.9 6.1,2.5 -2.8,4.9 -4.6,10.2 -6.4,15.3 -1,3 -2.1,6 -3.3,9 0,0 0,0 0,0 -0.3,0 -1.1,0.1 -2.2,0.2 0,0 -0.1,0 -0.1,0 -0.1,0 -0.3,0 -0.4,0 -0.1,0 -0.1,0 -0.2,0 -0.1,0 -0.2,0 -0.4,0 -0.1,0 -0.2,0 -0.3,0 -0.1,0 -0.2,0 -0.3,0 -0.1,0 -0.2,0 -0.3,0 -0.1,0 -0.2,0 -0.3,0 -0.1,0 -0.2,0 -0.4,0 -0.1,0 -0.2,0 -0.3,0 -0.1,0 -0.2,0 -0.4,0 -0.1,0 -0.2,0 -0.3,0 -0.1,0 -0.2,0 -0.4,0.1 -0.1,0 -0.2,0 -0.2,0 -0.1,0 -0.2,0 -0.3,0.1 -0.1,0 -0.1,0 -0.2,0 -0.1,0 -0.2,0 -0.3,0.1 0,0 -0.1,0 -0.1,0 -0.1,0 -0.3,0.1 -0.4,0.1 -0.5,0.1 -1,0.3 -1.6,0.3 -1,0 -2,-0.3 -2.7,-1.3 -0.9,-1.3 -1.7,-2.6 -2.4,-4.1 -0.8,-1.1 0.1,-4.6 1.7,-5.2 z"
       id="path2"
       style="stroke:#7e42b3;stroke-opacity:1;fill:#4a2769;fill-opacity:1" /><path
       d="m 41.6,86.3 c 1.8,-4.6 3.7,-9.4 4.8,-14.1 0.2,-0.6 0.4,-0.8 1.3,-0.8 h 0.1 c 0.1,0 0.3,0 0.4,0 1.5,0 3.1,-0.2 4.5,-1.4 0.1,-0.1 0.3,-0.2 0.5,-0.2 0.6,0 1.2,0.4 1.7,1.1 0.7,1 0.9,2.2 1,3.4 0.5,3.7 1.2,7.7 1.8,11.7 0.2,1.1 0.4,2.1 0.5,3.2 0,0 0,0 0,0 l -0.4,0.1 c -0.1,0 -0.2,0.1 -0.4,0.1 -0.6,0 -1.5,-0.5 -2,-0.7 -0.8,-0.4 -0.2,-0.8 0,-1.2 0.2,-0.4 0.3,-0.8 -0.3,-1.1 -1,-0.5 -1.9,-1.2 -3,-1.7 -0.6,-0.2 -1.2,-0.4 -1.7,-0.4 -0.8,0 -1.5,0.3 -2.1,1 0,0 0,0 0,0 0,0 0,0 0,0 v 0 0 c -1.8,1.9 -4.5,1.7 -7,2.8 l -0.6,0.2 c 0,0 0,0 0,0 0.4,-0.6 0.7,-1.3 0.9,-2 z"
       id="path3"
       style="stroke:#7e42b3;stroke-opacity:1;fill:#4a2769;fill-opacity:0.97647059" /><path
       d="m 55,19.8 c 0,0 -0.3,0.9 -0.5,1.3 -0.6,1.6 -1.6,3.8 -0.8,5.4 0,0 0,0 0,0 0,0 0,0 0,0 -0.7,3.5 -2.4,6.9 -4.5,10.2 -0.6,-1 -1.1,-1.8 -1.5,-2.5 -0.3,-0.5 -0.6,-0.9 -0.8,-1.3 -1.4,-2.5 -1.7,-4.9 -1.7,-6.6 0,0 0,0 0,0 0,0 0,0 0,0 0.4,-0.8 0.4,-1.9 0.3,-2.9 -0.1,-0.6 -0.1,-1 -0.2,-1.2 -0.2,-0.8 -0.9,-2.3 -0.9,-2.3 0,0 -0.1,0 -0.1,0 -0.3,0 -0.9,-0.1 -1,-0.7 -0.2,-1.1 -1.2,-2.3 0.3,-3.3 0.2,-0.1 0.1,-0.4 0,-0.7 C 42.9,12.4 43.5,9 45.5,7 c 1.2,-1.3 2.7,-2 4.4,-2 1.4,0 3,0.8 3.9,1.7 1.8,1.9 3.1,4.8 2,8.7 -0.1,0.3 0.5,0.5 0.9,1.1 0.3,0.5 0.1,1.3 -0.4,2.6 -0.3,0.7 -1.2,0.7 -1.3,0.7 z"
       id="path4"
       style="stroke:#7e42b3;stroke-opacity:1;fill:#4a2769;fill-opacity:1" /><path
       d="m 56.6,68.2 c 2.5,-1 5.3,-2.4 5.8,-2.7 0,0 3.2,3.8 3.6,4.4 1,1.5 2,3 3.7,4 0.2,-1.7 2.3,-5.2 1.2,-8.1 -0.4,-1 1.5,-2.3 0.6,-3.3 -0.7,-0.7 -1,-1.7 -0.8,-2.5 0.4,-2 -2.2,-4 -2.2,-4 -2.1,-2.5 -2.7,-7.1 -3,-7.9 -0.3,-0.8 -1.3,-2 -1.3,-2 0,0 0.5,6.2 0,9.1 -0.9,4.5 -3.1,5.5 -3.1,5.5 L 60.3,61 c -4.5,2.8 -8.6,4.1 -12.5,4.1 -2,0 -3.9,-0.4 -5.9,-1.1 0.4,-2 2.6,-11.5 6.1,-16.9 0.6,-1 1.3,-1.9 1.9,-2.8 3.5,-5.2 7,-10.5 8.4,-16.4 0,0 0,0 0,0 0,0 0,0 0,0 0.2,0.1 0.4,0.1 0.6,0.2 0,0 0.1,0 0.1,0 0.2,0.1 0.5,0.2 0.7,0.3 1.7,1 3.2,1.3 5.6,2.1 2.3,0.8 4.2,4.4 5.6,6.8 3.6,6.4 7.1,17.6 7.6,20.4 0.4,2.2 0.9,6.6 0.2,9.7 -0.6,2.5 -0.7,4.9 0.8,7.1 0.3,0.4 0.7,1 0.4,1.5 -0.2,0.4 -0.6,0.5 -1.1,0.5 -0.2,0 -0.4,0 -0.6,-0.1 -0.2,-0.1 -0.5,-0.1 -0.8,-0.1 -0.4,0 -0.7,0.1 -0.7,0.3 -0.1,0.8 -0.7,2.6 -0.7,2.6 0,0 5,4.1 4.6,7.7 -0.2,1.6 0.9,2.3 0.2,4 -1,2.6 -3.6,4 -6,4 -0.9,0 -1.8,-0.3 -2.6,-0.7 -0.7,-0.4 -1.5,-0.7 -2.3,-0.7 -0.1,0 -0.3,0 -0.4,0 -0.1,0 -0.3,0 -0.4,0 -2,0 -5.4,-2.1 -5.4,-2.1 l -0.2,-0.1 c 0,0 0,0 0,0 -0.6,-4 -1.7,-10.8 -2.9,-14.5 -1,-3.8 -2.4,-6.7 -4,-8.6 z"
       id="path5"
       style="stroke:#7e42b3;stroke-opacity:1;fill:#4a2769;fill-opacity:1" /></g></svg>
