<?xml version="1.0" encoding="UTF-8" standalone="no"?>
<svg
   version="1.1"
   x="0px"
   y="0px"
   viewBox="0 0 64.287514 67.584732"
   enable-background="new 0 0 80 80"
   xml:space="preserve"
   id="svg22"
   sodipodi:docname="noun-jiujitsu-4114616.svg"
   width="64.287514"
   height="67.584732"
   inkscape:version="1.3.2 (091e20e, 2023-11-25, custom)"
   xmlns:inkscape="http://www.inkscape.org/namespaces/inkscape"
   xmlns:sodipodi="http://sodipodi.sourceforge.net/DTD/sodipodi-0.dtd"
   xmlns="http://www.w3.org/2000/svg"
   xmlns:svg="http://www.w3.org/2000/svg"><defs
     id="defs22" /><sodipodi:namedview
     id="namedview22"
     pagecolor="#ffffff"
     bordercolor="#000000"
     borderopacity="0.25"
     inkscape:showpageshadow="2"
     inkscape:pageopacity="0.0"
     inkscape:pagecheckerboard="0"
     inkscape:deskcolor="#d1d1d1"
     inkscape:zoom="11.81"
     inkscape:cx="35.73243"
     inkscape:cy="33.657917"
     inkscape:window-width="2560"
     inkscape:window-height="1377"
     inkscape:window-x="-8"
     inkscape:window-y="-8"
     inkscape:window-maximized="1"
     inkscape:current-layer="svg22" /><path
     d="m 58.779325,54.322735 c 0.014,-0.041 0.031,-0.08 0.034,-0.125 0.257,-3.563 -2.68,-5.572 -3.171,-5.882 l 0.135,-0.294 c 0.09,-0.195 0.045,-0.427 -0.112,-0.574 l -2.421,-2.265 0.999,-3.432 c 0.044,-0.153 0.013,-0.319 -0.085,-0.446 l -6.011,-7.756 3.047,-1.657 c 0.13,-0.071 0.222,-0.196 0.251,-0.341 l 1.134,-5.669 c 0.003,-0.014 -0.002,-0.028 0,-0.042 l 0.275,0.005 c 0.003,0 0.006,0 0.009,0 0.153,0 0.299,-0.071 0.394,-0.192 0.097,-0.124 0.13,-0.285 0.09,-0.437 l -3.188,-11.952 c -0.053,-0.197 -0.22,-0.342 -0.422,-0.367 l -4.631,-0.571 c -0.055,-0.006 -0.107,-0.005 -0.159,0.006 l -2.999,0.599 -1.228,-3.4090001 c -0.047,-0.13 -0.146,-0.235 -0.273,-0.29 -0.128,-0.054 -0.271,-0.055 -0.398,0.002 l -3.979,1.7500001 -2.106,-2.7360001 -1.775,-5.437 V 0.83273489 c 0,-0.155 -0.072,-0.302 -0.195,-0.396 -0.085,-0.065 -0.857,-0.631 -1.681,-0.367 -0.531,0.173 -0.916,0.634 -1.144,1.37100001 l -1.803,3.381 c -0.016,0.03 -0.028,0.062 -0.038,0.094 -0.05,0.17 -1.205,4.188 0.696,6.0880001 0.034,0.034 0.072,0.063 0.114,0.085 0.288,0.157 1.186,0.616 1.871,0.642 l 1.375,1.353 c -3.908,-1.255 -8.526,-1.811 -9.344,-1.903 -0.175,-0.017 -0.349,0.056 -0.455,0.196 l -1.467,1.95 c -5.068,0.492 -5.624,-1.476 -5.628,-1.476 -0.25,-2.2550001 -1.08,-2.5650001 -1.332,-2.6070001 -2.477,-0.391 -3.6460004,1.3960001 -3.7360004,1.5520001 -1.46,3.522 1.9650004,8.333 2.1110004,8.536 0.027,0.038 0.059,0.071 0.096,0.1 0.472,0.373 1.001,0.527 1.524,0.441 0.738,-0.118 1.283,-0.659 1.545,-0.976 h 1.832 c -0.945,0.782 -1.652,1.794 -1.981,2.991 -0.469,1.71 -0.134,3.526 0.943,5.113 1.053,1.552 2.697,2.701 4.629,3.24 l 0.991,3.034 -6.597,5.732 c -0.05,0.043 -0.091,0.096 -0.12,0.155 l -8.0580004,16.315 -1.647,2.724 -3.528,5.126 c -0.39999996,0.604 -1.31299996,2.094 -1.14099996,2.868 0.041,0.182 0.179,0.326 0.358,0.374 0.129,0.035 2.36199996,0.626 4.57699996,0.626 0.851,0 1.699,-0.088 2.424,-0.327 0.08,-0.029 0.789,-0.312 1.061,-1.118 0.225,-0.669 0.068,-1.463 -0.466,-2.359 0.113,-0.614 0.62,-2.753 2.2500004,-3.458 l 1.904,0.342 0.012,0.002 c 0,0 0,0 0,0 l 3.609,0.647 c 0.236,0.037 0.479,-0.096 0.56,-0.327 l 4.591,-13.138 2.367,-0.761 c 0.051,0.115 0.107,0.23 0.16,0.345 l -1.513,1.281 c -0.113,0.097 -0.178,0.238 -0.177,0.387 0.002,0.148 0.069,0.289 0.185,0.383 l 5.233,4.26 3.721,6.572 c 0.621,1.105 1.368,2.103 2.247,2.987 4.137,4.156 9.855,4.577 11.989,4.577 0.487,0 0.787,-0.022 0.839,-0.026 h 3.67 c 0.077,0 0.149,-0.021 0.214,-0.052 0.018,-0.009 0.033,-0.023 0.05,-0.034 0.046,-0.03 0.087,-0.064 0.121,-0.107 0.008,-0.01 0.021,-0.014 0.029,-0.026 0.014,-0.021 0.024,-0.051 0.037,-0.073 0.003,-0.007 0.008,-0.014 0.011,-0.021 0.397,-0.655 0.56,-1.724 0.623,-2.611 1.062,1.333 2.571,2.308 4.315,2.765 0.709,0.187 1.433,0.28 2.152,0.28 3.314,0 6.157,-2.013 6.912,-4.895 0.462,-1.759 0.122,-3.611 -0.955,-5.217 -1.004,-1.494 -2.543,-2.599 -4.352,-3.15 z m -0.963,-0.226 c -0.502,-0.092 -1.008,-0.155 -1.513,-0.155 -0.135,0 -0.262,0.023 -0.395,0.03 -0.011,-0.027 -0.015,-0.055 -0.031,-0.081 -0.818,-1.271 -1.67,-1.692 -2.203,-1.835 v -0.712 c 0.033,-0.013 0.069,-0.018 0.102,-0.033 0.911,-0.406 1.222,-1.46 1.289,-1.738 l 0.156,-0.339 c 0.603,0.408 2.781,2.08 2.595,4.863 z m -6.696,1.853 c -0.002,-0.759 -0.118,-1.322 -0.23,-1.698 l 2.454,-0.891 c 0.128,-0.046 0.211,-0.15 0.266,-0.269 0.302,0.126 0.729,0.409 1.186,1.01 -1.428,0.274 -2.704,0.919 -3.676,1.848 z m -6.047,-30.61 c 0.057,0.217 0.25,0.37 0.475,0.374 l 1.832,0.033 -0.437,0.651 -1.242,0.339 c -0.166,0.045 -0.297,0.173 -0.347,0.338 l -0.787,2.608 c -0.046,0.151 -0.018,0.315 0.077,0.443 0.095,0.127 0.243,0.202 0.401,0.202 h 1.544 l 0.208,0.251 -2.802,8.43 -6.797,-6.694 c 0.003,-0.796 0.003,-1.591 0,-2.376 l 2.843,-6.104 4.324,-1.197 z m -8.772,16.737 0.094,0.047 -4.341,3.708 -0.735,-4.212 z m 2.262,1.143 0.786,0.397 -1.683,0.552 z m 2.13,-0.044 -3.562,-1.801 c -0.032,-0.057 -0.072,-0.106 -0.123,-0.147 0.109,-2.271 0.163,-4.875 0.184,-7.519 l 11.18,11.011 c -1.123,0.099 -2.072,0.573 -2.642,0.928 -0.994,-2.601 -2.488,-3.147 -2.576,-3.177 -0.103,-0.032 -0.212,-0.034 -0.314,0 z m 5.849,6.493 c -0.087,-1.195 -0.263,-2.196 -0.493,-3.033 0.417,-0.287 1.34,-0.818 2.442,-0.907 -0.014,0.018 -0.039,0.049 -0.042,0.054 -0.08,0.11 -0.112,0.249 -0.088,0.384 0.131,0.717 0.853,4.332 2.268,5.039 0.11,0.056 0.237,0.068 0.355,0.035 l 0.646,-0.176 10e-4,10e-4 -0.743,0.584 z m 4.208,3.017 c 0.168,0.078 0.369,0.054 0.516,-0.062 l 1.407,-1.105 v 1.021 l -2.909,1.057 -2.157,-1.692 -0.437,-0.851 z m 3.383,-3.483 c -0.017,0.036 -0.029,0.074 -0.037,0.114 -10e-4,0.008 -0.185,0.838 -0.729,1.08 -0.096,0.043 -0.2,0.066 -0.313,0.07 0.038,-0.097 0.046,-0.206 0.017,-0.314 -0.061,-0.222 -0.263,-0.368 -0.482,-0.368 -0.043,0 -0.088,0.006 -0.132,0.018 l -1.519,0.415 c -0.636,-0.541 -1.258,-2.538 -1.549,-4.004 0.119,-0.133 0.316,-0.328 0.578,-0.513 0.014,-0.01 0.03,-0.017 0.043,-0.029 0.445,-0.304 1.067,-0.566 1.818,-0.446 l 2.891,2.705 z m -0.922,-7.487 -0.786,2.701 -0.021,-0.019 c -0.066,-0.062 -0.147,-0.104 -0.236,-0.123 -0.983,-0.214 -1.797,0.043 -2.42,0.399 l -5.016,-4.941 c 0.057,-0.054 0.114,-0.11 0.141,-0.189 l 1.71,-5.143 0.675,-0.367 z m -2.701,-10.592 -3.466,1.885 0.791,-2.38 c 0.055,-0.164 0.021,-0.344 -0.09,-0.477 l -0.536,-0.646 c -0.095,-0.114 -0.236,-0.181 -0.385,-0.181 h -1.105 l 0.513,-1.698 1.155,-0.315 c 0.115,-0.032 0.217,-0.104 0.283,-0.204 l 0.901,-1.342 3,0.053 z m -5.449,-17.797 4.216,0.52 2.931,10.985 -6.264,-0.111 -0.74,-2.834 v -0.001 c 0,0 0,0 0,-0.001 l -0.477,-1.827 c -0.069,-0.266 -0.34,-0.426 -0.609,-0.357 -0.268,0.07 -0.428,0.343 -0.357,0.61 l 0.355,1.357 -4.561,1.263 c -0.141,0.039 -0.258,0.138 -0.319,0.271 l -2.048,4.396 c -0.048,-5.846 -0.196,-10.658 -0.198,-10.744 -0.002,-0.054 -0.012,-0.106 -0.03,-0.157 -0.007,-0.018 -0.017,-0.035 -0.024,-0.052 l 2.305,-0.328 c 0.205,-0.029 0.348,-0.219 0.318,-0.424 -0.028,-0.204 -0.21,-0.353 -0.424,-0.318 l -2.606,0.37 c -0.254,-0.327 -0.584,-0.635 -0.976,-0.924 1.096,-0.4 2.978,-0.967 4.245,-0.684 0.069,0.015 0.14,0.016 0.206,0.002 z m -14.509,-2.462 c -0.118,-0.116 -0.282,-0.167 -0.449,-0.134 -0.221,0.044 -0.909,-0.214 -1.423,-0.484 -1.321,-1.4160001 -0.521,-4.5830001 -0.408,-5.0030001 l 1.801,-3.376 c 0.016,-0.03 0.028,-0.062 0.038,-0.094 0.087,-0.295 0.245,-0.665 0.507,-0.752 0.18,-0.06 0.404,0.013 0.568,0.093 v 1.774 c 0,0.053 0.009,0.105 0.024,0.155 l 1.827,5.594 c 0.018,0.054 0.045,0.104 0.079,0.15 l 2.107,2.7370001 -1.078,0.915 c -0.211,0.179 -0.236,0.494 -0.058,0.705 0.099,0.117 0.239,0.177 0.381,0.177 0.114,0 0.229,-0.039 0.323,-0.119 l 1.387,-1.177 3.781,-1.662 0.996,2.765 -1.048,0.21 c -1.893,-0.357 -4.618,0.69 -5.417,1.023 -0.251,-0.135 -0.511,-0.267 -0.786,-0.392 z m -14.235,15.576 c -0.91,-1.341 -1.196,-2.863 -0.806,-4.287 0.402,-1.465 1.469,-2.628 2.907,-3.293 0.011,-0.004 0.024,-0.003 0.034,-0.008 0.344,-0.157 0.706,-0.277 1.075,-0.374 0.087,-0.022 0.177,-0.038 0.265,-0.057 0.275,-0.061 0.555,-0.103 0.839,-0.131 0.133,-0.013 0.267,-0.023 0.403,-0.028 0.267,-0.011 0.537,-0.004 0.808,0.015 0.122,0.008 0.244,0.011 0.365,0.025 0.39,0.046 0.78,0.113 1.168,0.219 0.423,0.116 0.828,0.27 1.215,0.448 0.027,0.013 0.056,0.023 0.083,0.036 0.375,0.179 0.729,0.389 1.062,0.622 0.026,0.018 0.054,0.035 0.08,0.054 0.34,0.245 0.655,0.517 0.942,0.814 0.007,0.007 0.014,0.014 0.021,0.021 0.294,0.308 0.557,0.641 0.786,0.998 0.043,0.067 0.091,0.131 0.131,0.199 l -1.993,7.068 c -1.52,0.817 -3.456,1.008 -5.281,0.507 -1.719,-0.471 -3.177,-1.483 -4.104,-2.848 z m 7.388,9.31 -1.035,-0.921 -1.422,-4.352 c 0.406,0.058 0.813,0.091 1.219,0.091 0.253,0 0.501,-0.025 0.75,-0.047 l 0.405,2.494 c 0.021,0.123 0.126,0.21 0.247,0.21 0.013,0 0.026,-10e-4 0.04,-0.003 0.137,-0.022 0.229,-0.15 0.207,-0.287 l -0.402,-2.471 c 0.569,-0.087 1.119,-0.229 1.642,-0.432 z m -3.349,10.834 c -0.149,0.048 -0.267,0.163 -0.318,0.311 l -4.532,12.97 -1.287,-0.231 0.848,-2.271 c 0.072,-0.193 -0.026,-0.41 -0.221,-0.482 -0.192,-0.07 -0.409,0.025 -0.482,0.221 l -0.896,2.398 -1.146,-0.206 c -10e-4,0 -0.002,-0.001 -0.003,-0.001 l -4.8700004,-0.887 c -0.265,-0.042 -0.532,0.131 -0.582,0.402 -0.049,0.271 0.131,0.532 0.402,0.582 l 1.538,0.28 c -1.527,1.352 -1.838,3.644 -1.853,3.762 -0.015,0.115 0.012,0.233 0.074,0.331 0.435,0.682 0.596,1.254 0.467,1.657 -0.116,0.364 -0.448,0.505 -0.446,0.505 10e-4,0 10e-4,0 10e-4,0 -1.881,0.618 -4.913,0.026 -6.006,-0.223 0.132,-0.42 0.51,-1.157 0.945,-1.815 l 3.539,-5.144 1.684,-2.785 8.0330004,-16.263 6.203,-5.388 0.314,0.961 c 0.027,0.084 0.077,0.159 0.144,0.218 l 1.493,1.329 -0.702,2.43 c -0.017,0.057 -0.022,0.116 -0.019,0.175 l 0.198,2.698 -2.449,1.29 c -0.184,0.097 -0.254,0.323 -0.157,0.507 0.067,0.128 0.197,0.2 0.332,0.2 0.06,0 0.119,-0.014 0.175,-0.043 l 2.159,-1.138 0.202,2.755 z m 3.83,-0.275 -0.505,-6.873 5.174,-17.916 c 0.073,-0.255 -0.065,-0.523 -0.316,-0.611 l -0.221,-0.078 c -0.129,-0.191 -0.269,-0.375 -0.416,-0.554 -0.007,-0.008 -0.012,-0.017 -0.019,-0.025 -0.121,-0.146 -0.25,-0.286 -0.382,-0.424 -0.048,-0.051 -0.096,-0.102 -0.146,-0.152 -0.11,-0.108 -0.224,-0.212 -0.34,-0.314 -0.085,-0.075 -0.17,-0.148 -0.258,-0.219 -0.099,-0.079 -0.199,-0.157 -0.302,-0.232 -0.116,-0.085 -0.236,-0.167 -0.357,-0.246 -0.089,-0.058 -0.178,-0.117 -0.27,-0.172 -0.143,-0.086 -0.291,-0.166 -0.44,-0.244 -0.082,-0.043 -0.163,-0.088 -0.247,-0.128 -0.169,-0.082 -0.344,-0.155 -0.52,-0.226 -0.072,-0.029 -0.141,-0.062 -0.214,-0.089 -0.251,-0.094 -0.506,-0.179 -0.769,-0.251 -0.341,-0.093 -0.685,-0.159 -1.029,-0.21 -0.071,-0.011 -0.142,-0.022 -0.213,-0.031 -0.334,-0.042 -0.668,-0.065 -1,-0.068 -0.023,0 -0.047,-0.005 -0.07,-0.005 -0.041,0 -0.079,0.008 -0.12,0.009 -0.337,0.005 -0.671,0.026 -1.001,0.071 -0.061,0.008 -0.121,0.018 -0.182,0.027 -0.28,0.045 -0.555,0.107 -0.826,0.181 -0.12,0.032 -0.24,0.064 -0.357,0.102 -0.239,0.078 -0.474,0.164 -0.704,0.265 h -3.691 c -0.168,0 -0.324,0.084 -0.417,0.224 -0.115,0.173 -0.553,0.687 -1.038,0.764 -0.222,0.038 -0.457,-0.027 -0.692,-0.198 -0.373,-0.541 -3.1290004,-4.685 -1.999,-7.43 0.009,-0.013 0.89,-1.3110001 2.618,-1.049 0.004,0.002 0.407,0.243 0.579,1.786 0.02,0.116 0.549,2.679 5.978,2.379 l -1.192,2.067 c -0.138,0.239 -0.056,0.545 0.184,0.683 0.079,0.045 0.165,0.067 0.25,0.067 0.173,0 0.341,-0.09 0.434,-0.25 l 1.653,-2.866 1.405,-1.867 c 2.61,0.314 7.751,1.202 10.997,2.628 0.018,0.009 0.034,0.018 0.053,0.024 1.368,0.607 2.398,1.31 2.733,2.109 0.036,1.229 0.438,15.174 0.024,24.076 l -5.255,-0.482 c -0.154,-0.008 -0.308,0.044 -0.413,0.159 -0.105,0.114 -0.152,0.271 -0.125,0.425 l 0.755,4.328 -0.446,-0.145 c -10e-4,-0.045 -0.007,-0.09 -0.025,-0.134 l -0.301,-0.744 c -0.077,-0.191 -0.297,-0.284 -0.488,-0.207 -0.192,0.077 -0.284,0.296 -0.207,0.488 l 0.123,0.304 -2.506,-0.817 c -0.164,-0.054 -0.345,-0.018 -0.479,0.094 l -2.432,2.06 c -0.009,-0.02 -0.02,-0.041 -0.03,-0.063 z m 2.896,-1.052 3.643,1.189 -1.609,0.528 c -0.19,0.063 -0.325,0.232 -0.342,0.433 -0.06,0.708 -0.084,1.389 -0.1,2.063 l -1.592,2.535 -4.063,-3.307 z m 1.281,8.199 0.394,-0.971 c 0.064,0.752 0.161,1.477 0.289,2.177 z m 17.548,13.009 c -0.07,0.007 -7.319,0.524 -12.08,-4.259 -0.796,-0.8 -1.478,-1.702 -2.048,-2.703 -0.002,-0.004 -0.002,-0.009 -0.004,-0.013 l -0.021,-0.037 c -1.692,-3.005 -2.37,-6.9 -2.014,-11.634 l 13.218,-4.336 c 0.482,0.273 2.213,1.565 2.577,6.102 l -6.532,1.106 c -0.035,0.006 -0.063,0.024 -0.095,0.036 -1.155,-0.99 -2.015,-1.636 -2.126,-1.718 -0.222,-0.164 -0.534,-0.117 -0.699,0.104 -0.165,0.222 -0.118,0.535 0.104,0.699 0.087,0.064 8.698,6.509 9.145,11.159 0.025,0.259 0.243,0.452 0.497,0.452 0.017,0 0.032,-10e-4 0.049,-0.002 0.274,-0.026 0.477,-0.271 0.45,-0.546 -0.305,-3.174 -3.795,-6.895 -6.471,-9.314 l 5.931,-1.005 0.975,1.902 c 0.033,0.063 0.08,0.12 0.137,0.165 l 2.462,1.931 c 0.09,0.07 0.198,0.106 0.309,0.106 0.058,0 0.115,-0.01 0.171,-0.03 l 0.103,-0.038 c 0.139,0.493 0.293,1.438 0.028,2.824 -0.002,0.009 0.002,0.018 0,0.027 -0.245,0.438 -0.456,0.896 -0.586,1.392 -0.364,1.388 -0.222,2.832 0.38,4.168 -0.011,0.044 -0.025,0.087 -0.023,0.134 0.026,0.928 -0.075,2.543 -0.427,3.324 z m 17.208,-4.029 c -0.641,2.442 -3.085,4.148 -5.945,4.148 -0.634,0 -1.272,-0.083 -1.898,-0.247 -1.716,-0.45 -3.172,-1.46 -4.101,-2.843 -0.915,-1.363 -1.206,-2.928 -0.818,-4.405 0.641,-2.442 3.086,-4.148 5.946,-4.148 0.634,0 1.272,0.083 1.897,0.247 1.716,0.45 3.172,1.46 4.101,2.843 0.915,1.363 1.206,2.928 0.818,4.405 z"
     id="path1"
     style="fill:#7e42b3;fill-opacity:0.94902;stroke:none;stroke-opacity:1" /><path
     d="m 30.099325,26.488735 c -0.205,-0.025 -0.388,0.135 -0.406,0.341 l -0.259,2.989 c -0.018,0.206 0.136,0.388 0.342,0.406 0.011,0.001 0.021,0.001 0.032,0.001 0.193,0 0.356,-0.147 0.374,-0.343 l 0.259,-2.989 c 0.018,-0.206 -0.136,-0.388 -0.342,-0.405 z"
     id="path2"
     style="fill:#7e42b3;fill-opacity:0.94902" /><path
     d="m 24.028325,15.927735 c -1.662,-0.458 -2.911,-0.683 -2.963,-0.692 -0.21,-0.036 -0.399,0.1 -0.436,0.303 -0.037,0.203 0.1,0.398 0.303,0.435 0.013,0.002 1.27,0.229 2.896,0.677 0.033,0.009 0.066,0.014 0.1,0.014 0.165,0 0.315,-0.109 0.361,-0.275 0.056,-0.2 -0.062,-0.407 -0.261,-0.462 z"
     id="path3"
     style="fill:#7e42b3;fill-opacity:0.94902" /><path
     d="m 29.581325,32.465735 c -0.206,-0.019 -0.388,0.135 -0.406,0.341 l -0.259,2.989 c -0.018,0.206 0.136,0.388 0.342,0.406 0.011,10e-4 0.021,10e-4 0.032,10e-4 0.193,0 0.356,-0.147 0.374,-0.343 l 0.259,-2.989 c 0.017,-0.205 -0.136,-0.387 -0.342,-0.405 z"
     id="path4"
     style="fill:#7e42b3;fill-opacity:0.94902" /><path
     d="m 30.295325,24.246735 c 0.011,10e-4 0.021,10e-4 0.032,10e-4 0.193,0 0.356,-0.147 0.374,-0.343 l 0.259,-2.989 c 0.018,-0.206 -0.136,-0.388 -0.342,-0.406 -0.204,-0.022 -0.388,0.135 -0.406,0.341 l -0.259,2.989 c -0.018,0.207 0.136,0.389 0.342,0.407 z"
     id="path5"
     style="fill:#7e42b3;fill-opacity:0.94902" /><path
     d="m 28.739325,42.178735 c 0.011,10e-4 0.021,10e-4 0.032,10e-4 0.192,0 0.356,-0.147 0.374,-0.343 l 0.26,-2.988 c 0.018,-0.206 -0.135,-0.388 -0.342,-0.406 -0.197,-0.015 -0.388,0.136 -0.406,0.342 l -0.26,2.988 c -0.017,0.206 0.135,0.388 0.342,0.406 z"
     id="path6"
     style="fill:#7e42b3;fill-opacity:0.94902" /><path
     d="m 29.492325,18.880735 c 0.126,0 0.249,-0.063 0.319,-0.179 0.108,-0.177 0.053,-0.407 -0.123,-0.516 -0.756,-0.463 -1.688,-0.907 -2.77,-1.321 -0.189,-0.073 -0.409,0.022 -0.484,0.216 -0.073,0.194 0.023,0.411 0.217,0.484 1.039,0.398 1.929,0.822 2.645,1.261 0.061,0.038 0.129,0.055 0.196,0.055 z"
     id="path7"
     style="fill:#7e42b3;fill-opacity:0.94902" /><path
     d="m 40.578325,32.400735 c 0.024,0.005 0.049,0.007 0.073,0.007 0.176,0 0.332,-0.123 0.368,-0.302 l 0.464,-2.323 c 0.04,-0.203 -0.092,-0.4 -0.295,-0.441 -0.198,-0.039 -0.4,0.091 -0.441,0.294 l -0.464,2.323 c -0.04,0.204 0.092,0.401 0.295,0.442 z"
     id="path8"
     style="fill:#7e42b3;fill-opacity:0.94902" /><path
     d="m 41.630325,27.135735 c 0.024,0.005 0.049,0.007 0.073,0.007 0.176,0 0.332,-0.123 0.368,-0.302 l 0.588,-2.941 c 0.04,-0.203 -0.092,-0.401 -0.295,-0.441 -0.201,-0.041 -0.4,0.091 -0.441,0.294 l -0.588,2.941 c -0.04,0.204 0.092,0.401 0.295,0.442 z"
     id="path9"
     style="fill:#7e42b3;fill-opacity:0.94902" /><path
     d="m 16.947325,51.260735 c -0.193,-0.07 -0.409,0.025 -0.482,0.221 l -1.05,2.811 c -0.072,0.193 0.026,0.41 0.221,0.482 0.043,0.016 0.087,0.023 0.131,0.023 0.152,0 0.295,-0.093 0.352,-0.244 l 1.05,-2.811 c 0.071,-0.193 -0.028,-0.41 -0.222,-0.482 z"
     id="path10"
     style="fill:#7e42b3;fill-opacity:0.94902" /><path
     d="m 19.047325,45.639735 c -0.192,-0.07 -0.409,0.025 -0.482,0.221 l -1.05,2.81 c -0.072,0.193 0.026,0.409 0.221,0.482 0.043,0.016 0.087,0.023 0.131,0.023 0.152,0 0.295,-0.093 0.352,-0.244 l 1.05,-2.81 c 0.071,-0.193 -0.028,-0.408 -0.222,-0.482 z"
     id="path11"
     style="fill:#7e42b3;fill-opacity:0.94902" /><path
     d="m 47.363325,65.135735 c -0.004,0 -0.429,0.049 -1.126,0.049 -0.583,0 -1.185,-0.033 -1.789,-0.099 -0.212,-0.013 -0.391,0.128 -0.413,0.333 -0.022,0.206 0.127,0.391 0.333,0.413 0.631,0.068 1.26,0.103 1.869,0.103 0.746,0 1.195,-0.052 1.214,-0.055 0.206,-0.024 0.353,-0.21 0.328,-0.416 -0.024,-0.204 -0.214,-0.354 -0.416,-0.328 z"
     id="path12"
     style="fill:#7e42b3;fill-opacity:0.94902" /><path
     d="m 31.362325,51.516735 c -0.122,-0.823 -0.21,-1.694 -0.262,-2.595 0.089,-0.098 0.124,-0.238 0.079,-0.372 -0.066,-0.198 -0.283,-0.303 -0.475,-0.236 l -0.11,0.037 c -0.159,0.054 -0.264,0.206 -0.256,0.374 0.051,1.008 0.146,1.983 0.281,2.901 0.027,0.187 0.188,0.32 0.371,0.32 0.018,0 0.036,-10e-4 0.055,-0.004 0.206,-0.029 0.347,-0.22 0.317,-0.425 z"
     id="path13"
     style="fill:#7e42b3;fill-opacity:0.94902" /><path
     d="m 31.972325,54.398735 c -0.055,-0.198 -0.258,-0.316 -0.463,-0.258 -0.199,0.056 -0.314,0.264 -0.258,0.463 0.287,1.014 0.645,1.977 1.062,2.863 0.063,0.136 0.198,0.215 0.339,0.215 0.054,0 0.108,-0.012 0.16,-0.036 0.187,-0.088 0.268,-0.312 0.179,-0.499 -0.399,-0.848 -0.742,-1.773 -1.019,-2.748 z"
     id="path14"
     style="fill:#7e42b3;fill-opacity:0.94902" /><path
     d="m 39.366325,46.210735 c 0.039,0 0.079,-0.006 0.118,-0.02 l 2.848,-0.944 c 0.196,-0.064 0.303,-0.277 0.237,-0.474 -0.066,-0.197 -0.279,-0.308 -0.474,-0.237 l -2.848,0.944 c -0.196,0.064 -0.303,0.277 -0.237,0.474 0.052,0.157 0.199,0.257 0.356,0.257 z"
     id="path15"
     style="fill:#7e42b3;fill-opacity:0.94902" /><path
     d="m 34.480325,59.654735 c -0.123,-0.166 -0.358,-0.199 -0.524,-0.077 -0.166,0.123 -0.201,0.358 -0.077,0.524 0.618,0.832 1.322,1.59 2.092,2.251 0.07,0.061 0.157,0.091 0.244,0.091 0.105,0 0.21,-0.044 0.284,-0.131 0.135,-0.156 0.117,-0.394 -0.04,-0.528 -0.727,-0.626 -1.393,-1.342 -1.979,-2.13 z"
     id="path16"
     style="fill:#7e42b3;fill-opacity:0.94902" /><path
     d="m 36.875325,46.662735 c -0.065,-0.196 -0.279,-0.308 -0.474,-0.237 l -2.848,0.944 c -0.196,0.064 -0.303,0.277 -0.237,0.474 0.052,0.157 0.198,0.257 0.355,0.257 0.039,0 0.079,-0.006 0.118,-0.02 l 2.848,-0.944 c 0.197,-0.065 0.303,-0.278 0.238,-0.474 z"
     id="path17"
     style="fill:#7e42b3;fill-opacity:0.94902" /><path
     d="m 41.571325,64.516735 c -0.955,-0.281 -1.865,-0.649 -2.707,-1.096 -0.182,-0.1 -0.41,-0.028 -0.507,0.155 -0.098,0.183 -0.027,0.41 0.155,0.507 0.886,0.47 1.844,0.857 2.848,1.152 0.035,0.011 0.07,0.016 0.105,0.016 0.162,0 0.312,-0.105 0.359,-0.27 0.06,-0.197 -0.054,-0.406 -0.253,-0.464 z"
     id="path18"
     style="fill:#7e42b3;fill-opacity:0.94902" /><path
     d="m 42.157325,15.897735 c 0.017,0 0.035,-0.001 0.053,-0.004 l 2.97,-0.422 c 0.205,-0.029 0.348,-0.219 0.318,-0.424 -0.028,-0.204 -0.21,-0.349 -0.424,-0.318 l -2.97,0.422 c -0.205,0.029 -0.348,0.219 -0.318,0.424 0.026,0.187 0.186,0.322 0.371,0.322 z"
     id="path19"
     style="fill:#7e42b3;fill-opacity:0.94902" /><path
     d="m 50.092325,23.848735 c 0.05,0.161 0.198,0.265 0.358,0.265 0.036,0 0.073,-0.005 0.11,-0.017 0.197,-0.061 0.309,-0.271 0.248,-0.469 l -0.881,-2.868 c -0.061,-0.198 -0.267,-0.309 -0.469,-0.248 -0.197,0.061 -0.309,0.271 -0.248,0.469 z"
     id="path20"
     style="fill:#7e42b3;fill-opacity:0.94902" /><path
     d="m 48.330325,18.112735 c 0.05,0.162 0.198,0.265 0.358,0.265 0.036,0 0.073,-0.005 0.11,-0.017 0.197,-0.061 0.309,-0.271 0.248,-0.468 l -0.881,-2.868 c -0.061,-0.198 -0.27,-0.312 -0.469,-0.249 -0.197,0.061 -0.309,0.271 -0.248,0.468 z"
     id="path21"
     style="fill:#7e42b3;fill-opacity:0.94902" /></svg>
