<?xml version="1.0" encoding="UTF-8" standalone="no"?>
<svg
   version="1.1"
   x="0px"
   y="0px"
   viewBox="0 0 41.597595 79.97786"
   enable-background="new 0 0 100 100"
   xml:space="preserve"
   id="svg13"
   sodipodi:docname="llama.svg"
   width="41.597595"
   height="79.977859"
   inkscape:version="1.3.2 (091e20e, 2023-11-25, custom)"
   xmlns:inkscape="http://www.inkscape.org/namespaces/inkscape"
   xmlns:sodipodi="http://sodipodi.sourceforge.net/DTD/sodipodi-0.dtd"
   xmlns="http://www.w3.org/2000/svg"
   xmlns:svg="http://www.w3.org/2000/svg"><defs
     id="defs13" /><sodipodi:namedview
     id="namedview13"
     pagecolor="#ffffff"
     bordercolor="#000000"
     borderopacity="0.25"
     inkscape:showpageshadow="2"
     inkscape:pageopacity="0.0"
     inkscape:pagecheckerboard="0"
     inkscape:deskcolor="#d1d1d1"
     inkscape:zoom="9.448"
     inkscape:cx="22.967824"
     inkscape:cy="50.963167"
     inkscape:window-width="2560"
     inkscape:window-height="1377"
     inkscape:window-x="-8"
     inkscape:window-y="-8"
     inkscape:window-maximized="1"
     inkscape:current-layer="g12" /><g
     id="g12"
     transform="translate(-27.071325,-11.517139)"><path
       d="m 52.165,35.572 c -0.275,0 -0.516,0.096 -0.723,0.289 -0.193,0.206 -0.289,0.447 -0.289,0.723 0,0.275 0.096,0.513 0.289,0.712 0.206,0.2 0.447,0.299 0.723,0.299 0.276,0 0.513,-0.1 0.712,-0.299 0.2,-0.2 0.299,-0.437 0.299,-0.712 0,-0.275 -0.1,-0.516 -0.299,-0.723 -0.2,-0.193 -0.437,-0.289 -0.712,-0.289 z"
       id="path1"
       style="fill:#5c3082;fill-opacity:1;stroke:#5c3082;stroke-opacity:1" /><path
       d="m 52.506,82.737 c -0.281,0.051 -0.467,0.32 -0.416,0.6 l 0.561,3.088 h -2.945 l 0.607,-5.39 h 2.337 c 0.154,0 0.299,-0.068 0.397,-0.187 0.098,-0.118 0.138,-0.274 0.11,-0.425 l -0.816,-4.358 c -0.052,-0.28 -0.322,-0.465 -0.602,-0.412 -0.28,0.052 -0.465,0.322 -0.412,0.602 l 0.701,3.746 h -2.17 c -0.004,0 -0.009,0 -0.014,0 h -1.03 l 0.364,-4.199 c 0.025,-0.284 -0.186,-0.534 -0.47,-0.559 -0.284,-0.026 -0.534,0.186 -0.559,0.47 l -0.413,4.76 c -0.013,0.144 0.036,0.287 0.134,0.393 0.098,0.107 0.236,0.167 0.381,0.167 h 1.023 l -0.658,5.848 c -0.016,0.146 0.03,0.292 0.128,0.402 0.098,0.109 0.238,0.172 0.385,0.172 h 4.141 c 0.153,0 0.298,-0.068 0.396,-0.185 0.098,-0.118 0.139,-0.273 0.112,-0.423 L 53.107,83.15 c -0.052,-0.278 -0.322,-0.465 -0.601,-0.413 z"
       id="path2"
       style="fill:#5c3082;fill-opacity:1;stroke:#5c3082;stroke-opacity:1" /><path
       d="m 37.433,72.567 c 0.055,0.144 0.171,0.255 0.317,0.304 l 2.261,0.764 c 0.054,0.018 0.11,0.027 0.165,0.027 0.082,0 0.163,-0.019 0.237,-0.058 0.124,-0.065 0.217,-0.177 0.257,-0.311 l 1.002,-3.356 c 0.082,-0.273 -0.074,-0.561 -0.347,-0.642 -0.273,-0.082 -0.561,0.074 -0.642,0.347 l -0.849,2.843 -1.17,-0.395 c 0.235,-0.437 0.464,-0.887 0.682,-1.341 0.002,-0.004 0.004,-0.009 0.007,-0.013 0.336,-0.696 0.659,-1.424 0.96,-2.166 0.107,-0.264 -0.02,-0.565 -0.284,-0.673 -0.264,-0.107 -0.565,0.02 -0.672,0.284 -0.236,0.58 -0.485,1.152 -0.743,1.706 l -1.489,-0.484 c -0.271,-0.087 -0.562,0.06 -0.651,0.331 -0.088,0.271 0.06,0.562 0.331,0.651 l 1.354,0.44 c -0.224,0.445 -0.456,0.881 -0.694,1.304 -0.075,0.134 -0.087,0.294 -0.032,0.438 z"
       id="path3"
       style="fill:#5c3082;fill-opacity:1;stroke:#5c3082;stroke-opacity:1" /><path
       d="m 39.024,82.261 c -0.281,-0.049 -0.548,0.142 -0.595,0.422 -0.337,1.985 -0.497,3.853 -0.475,5.562 -0.659,-0.086 -1.3,-0.313 -1.916,-0.677 0.225,-0.821 0.41,-1.608 0.552,-2.344 0,0 0,-0.001 0,-0.001 0.227,-1.165 0.353,-2.243 0.376,-3.205 0.007,-0.285 -0.219,-0.522 -0.504,-0.528 -0.288,-0.012 -0.522,0.219 -0.528,0.504 -0.017,0.73 -0.099,1.537 -0.244,2.404 l -1.493,-0.631 c 0.631,-1.519 1.05,-3.056 1.247,-4.575 0.037,-0.283 -0.163,-0.542 -0.445,-0.579 -0.281,-0.035 -0.542,0.163 -0.578,0.445 -0.205,1.581 -0.668,3.186 -1.374,4.771 -0.056,0.127 -0.06,0.271 -0.009,0.4 0.051,0.129 0.152,0.232 0.279,0.286 l 2.178,0.92 c -0.147,0.701 -0.332,1.446 -0.553,2.221 -0.061,0.215 0.023,0.444 0.207,0.569 1.043,0.706 2.162,1.073 3.328,1.09 0.003,0 0.005,0 0.008,0 0.139,0 0.272,-0.056 0.369,-0.155 0.099,-0.101 0.152,-0.239 0.147,-0.38 -0.067,-1.791 0.084,-3.785 0.447,-5.924 0.046,-0.281 -0.143,-0.548 -0.424,-0.595 z"
       id="path4"
       style="fill:#5c3082;fill-opacity:1;stroke:#5c3082;stroke-opacity:1" /><path
       d="m 58.156,74.65 -0.681,-3.986 c -0.048,-0.281 -0.314,-0.469 -0.596,-0.422 -0.281,0.048 -0.47,0.315 -0.422,0.596 l 0.595,3.48 -2.451,0.433 v -2.227 c 0,-0.005 0,-0.01 0,-0.015 v -1.613 c 0,-0.285 -0.231,-0.516 -0.516,-0.516 -0.285,0 -0.516,0.231 -0.516,0.516 v 1.036 l -3.016,-0.379 0.859,-3.036 c 0.078,-0.274 -0.082,-0.56 -0.356,-0.637 -0.275,-0.078 -0.56,0.082 -0.637,0.356 l -1.022,3.614 c -0.041,0.145 -0.017,0.3 0.066,0.426 0.083,0.125 0.217,0.208 0.366,0.227 l 3.74,0.47 v 2.394 c 0,0.153 0.068,0.297 0.185,0.396 0.094,0.079 0.211,0.121 0.332,0.121 0.03,0 0.06,-0.003 0.09,-0.008 l 3.562,-0.63 c 0.279,-0.05 0.466,-0.316 0.418,-0.596 z"
       id="path5"
       style="fill:#5c3082;fill-opacity:1;stroke:#5c3082;stroke-opacity:1" /><path
       d="m 40.427,76.905 c -0.279,-0.058 -0.553,0.12 -0.611,0.399 l -0.526,2.51 C 38.703,79.685 38.136,79.49 37.596,79.231 l 2.092,-4.644 c 0.117,-0.26 10e-4,-0.566 -0.259,-0.683 -0.26,-0.117 -0.566,-10e-4 -0.683,0.259 l -2.292,5.09 c -0.11,0.245 -0.014,0.533 0.22,0.663 0.914,0.507 1.902,0.847 2.938,1.009 0.027,0.004 0.054,0.006 0.08,0.006 0.24,0 0.454,-0.168 0.505,-0.41 l 0.63,-3.005 c 0.058,-0.279 -0.121,-0.552 -0.4,-0.611 z"
       id="path6"
       style="fill:#5c3082;fill-opacity:1;stroke:#5c3082;stroke-opacity:1" /><path
       d="m 68.127,88.141 -2.385,-5.527 0.904,-0.406 c 0.127,-0.057 0.226,-0.163 0.273,-0.294 0.048,-0.131 0.041,-0.275 -0.02,-0.401 l -3.032,-6.301 0.143,-0.046 c 0.132,-0.043 0.242,-0.137 0.304,-0.262 0.062,-0.125 0.071,-0.269 0.025,-0.401 l -0.811,-2.316 c 0.119,-0.042 0.219,-0.126 0.281,-0.238 0.069,-0.125 0.083,-0.272 0.039,-0.408 l -0.91,-2.817 0.146,-0.028 c 0.137,-0.027 0.257,-0.107 0.334,-0.224 0.076,-0.117 0.102,-0.259 0.072,-0.396 l -1.291,-5.77 0.987,-3.101 0.544,-0.089 c 0.271,-0.044 0.461,-0.293 0.43,-0.567 l -0.391,-3.516 h 0.332 c 0.262,0 0.482,-0.196 0.513,-0.455 l 0.399,-3.356 0.984,-0.172 c 0.281,-0.049 0.469,-0.316 0.42,-0.596 l -0.628,-3.64 c 0.156,-0.092 0.253,-0.26 0.253,-0.445 -0.002,-1.9 -0.226,-3.723 -0.667,-5.416 -0.006,-0.022 -0.013,-0.044 -0.022,-0.065 l -1.11,-2.715 C 64.24,38.165 64.237,38.157 64.233,38.15 l -1.107,-2.694 c -0.003,-0.007 -0.005,-0.013 -0.008,-0.02 l -1.433,-3.5 0.921,-2.241 c 0.038,-0.093 0.048,-0.195 0.029,-0.294 L 61.396,23 C 61.387,22.952 61.37,22.905 61.348,22.861 l -4.522,-8.746 c -0.062,-0.119 -0.167,-0.209 -0.294,-0.252 l -5.388,-1.817 c -0.004,-10e-4 -0.008,-0.002 -0.011,-0.004 0,0 0,0 -0.001,0 -10e-4,0 -0.002,-10e-4 -0.002,-10e-4 0,0 -0.001,0 -0.002,-0.001 -10e-4,-10e-4 -10e-4,0 -0.002,-10e-4 v 0 c -10e-4,0 -0.002,0 -0.002,-10e-4 -0.001,0 -0.003,-10e-4 -0.004,-10e-4 0,0 0,0 0,0 -10e-4,0 -0.002,-0.001 -0.004,-0.001 -10e-4,0 -0.002,0 -0.002,-10e-4 -10e-4,0 -10e-4,0 -0.002,0 -0.001,0 -0.001,0 -0.002,-10e-4 -10e-4,0 -10e-4,0 -10e-4,0 -0.052,-0.014 -0.107,-0.019 -0.162,-0.016 -0.729,0.03 -1.514,0.373 -2.337,1.02 -1.295,-0.401 -2.815,-0.473 -4.536,-0.213 -0.016,0.002 -0.033,0.004 -0.049,0.008 -0.765,0.146 -1.371,0.622 -1.802,1.415 -0.089,0.163 -0.083,0.361 0.015,0.519 l 5.213,8.404 1.451,4.393 -5.624,2.287 c -0.043,0.016 -0.083,0.038 -0.12,0.065 l -6.419,4.533 -1.832,1.18 c -10e-4,0.001 -0.002,0.001 -0.003,0.002 l -1.852,1.197 c -0.016,0.01 -0.032,0.022 -0.047,0.034 0,0 0,0 -0.001,10e-4 -0.08,0.066 -0.141,0.156 -0.17,0.262 l -2.053,7.108 c -0.041,0.142 -0.019,0.294 0.06,0.419 0.079,0.125 0.207,0.21 0.353,0.234 l 0.528,0.087 -2.187,0.436 c -0.242,0.048 -0.415,0.26 -0.415,0.506 v 1.731 l -1.189,0.38 c -0.173,0.055 -0.304,0.197 -0.346,0.374 -0.042,0.177 0.013,0.362 0.143,0.489 l 2.499,2.427 c 0.077,0.075 0.175,0.124 0.281,0.14 l 5.318,0.816 c 0.102,0.016 0.206,0.001 0.299,-0.044 l 4.86,-2.297 c 0.072,0.012 0.146,0.02 0.22,0.023 l 1.843,1.032 -2.282,3.323 c -0.094,0.137 -0.116,0.311 -0.06,0.467 0.056,0.156 0.184,0.276 0.344,0.322 l 0.226,0.065 c -0.579,1.502 -1.417,2.92 -2.495,4.221 -0.109,0.132 -0.146,0.31 -0.098,0.475 0.048,0.165 0.175,0.295 0.338,0.347 l 0.082,0.026 -3.44,7.772 -2.245,3.731 c -0.081,0.134 -0.096,0.298 -0.042,0.444 0.054,0.147 0.172,0.261 0.32,0.311 l 0.758,0.255 -1.875,3.298 c -0.015,0.026 -0.029,0.054 -0.04,0.083 l -0.599,1.601 c -1.044,2.813 -1.541,5.639 -1.478,8.4 0.007,0.285 0.238,0.518 0.528,0.504 0.285,-0.006 0.511,-0.243 0.504,-0.528 -0.06,-2.63 0.415,-5.328 1.413,-8.016 l 0.419,-1.12 2.482,0.908 c 0.133,0.049 0.28,0.041 0.406,-0.022 0.127,-0.063 0.222,-0.175 0.264,-0.31 l 0.857,-2.757 c 0.085,-0.272 -0.067,-0.562 -0.34,-0.646 -0.272,-0.083 -0.562,0.068 -0.646,0.34 l -0.696,2.239 -1.881,-0.688 1.678,-2.952 0.96,0.32 c 0.271,0.09 0.563,-0.056 0.653,-0.326 0.09,-0.271 -0.056,-0.563 -0.327,-0.653 l -1.363,-0.454 c 0,0 0,0 0,0 l -0.742,-0.249 1.93,-3.208 c 0.011,-0.019 0.021,-0.038 0.03,-0.057 l 3.499,-7.905 1.697,0.537 c 0.272,0.086 0.562,-0.065 0.648,-0.337 0.086,-0.272 -0.065,-0.562 -0.336,-0.648 l -2.054,-0.65 c 0.945,-1.247 1.691,-2.588 2.226,-4 l 0.966,0.277 c -0.353,0.778 -0.749,1.547 -1.182,2.294 -0.075,0.13 -0.09,0.286 -0.041,0.427 0.049,0.142 0.157,0.255 0.296,0.311 0.458,0.183 0.921,0.34 1.381,0.467 -0.174,0.881 -0.56,1.614 -1.174,2.231 -0.132,0.133 -0.182,0.326 -0.13,0.506 0.051,0.18 0.196,0.318 0.378,0.361 l 0.151,0.036 c -0.723,1.126 -1.28,2.268 -1.662,3.407 -0.527,-0.095 -1.015,-0.237 -1.46,-0.423 0.508,-0.743 0.964,-1.625 1.36,-2.631 0.104,-0.265 -0.026,-0.565 -0.291,-0.669 -0.266,-0.104 -0.565,0.026 -0.669,0.291 -0.454,1.155 -0.988,2.125 -1.587,2.884 -0.094,0.119 -0.131,0.274 -0.101,0.422 0.03,0.149 0.124,0.277 0.257,0.35 0.799,0.439 1.736,0.73 2.785,0.865 0.251,0.031 0.489,-0.123 0.561,-0.365 0.383,-1.291 1.014,-2.594 1.878,-3.879 l 1.093,0.258 c -0.046,0.097 -0.093,0.193 -0.14,0.288 -0.185,0.375 -0.38,0.749 -0.578,1.111 -0.075,0.137 -0.084,0.3 -0.025,0.445 0.059,0.144 0.181,0.254 0.331,0.298 l 0.915,0.271 c -0.129,0.537 -0.281,1.054 -0.456,1.546 l -1.71,-0.524 c -0.273,-0.083 -0.561,0.07 -0.645,0.342 -0.083,0.273 0.07,0.561 0.343,0.645 l 1.628,0.499 c -0.212,0.474 -0.45,0.926 -0.709,1.351 -0.087,0.142 -0.1,0.318 -0.035,0.472 0.065,0.154 0.201,0.266 0.364,0.302 l 2.567,0.565 c -0.149,0.843 -0.294,1.699 -0.433,2.561 -0.232,1.765 -0.273,3.468 -0.122,5.071 C 46.351,78.104 46.326,78.097 46.3,78.093 L 45.757,77.996 C 45.753,77.995 45.75,77.995 45.746,77.994 L 43.71,77.635 c 0.237,-0.666 0.382,-1.323 0.433,-1.962 0.307,0.01 0.62,-0.003 0.935,-0.038 0.283,-0.031 0.488,-0.287 0.456,-0.57 -0.032,-0.283 -0.285,-0.488 -0.57,-0.456 -0.429,0.048 -0.849,0.046 -1.249,-0.004 0,0 0,0 -0.001,0 -0.368,-0.047 -0.728,-0.137 -1.076,-0.269 0.438,-0.885 0.74,-1.779 0.899,-2.664 0.05,-0.281 -0.136,-0.549 -0.417,-0.599 -0.279,-0.049 -0.549,0.136 -0.599,0.417 -0.169,0.941 -0.521,1.898 -1.048,2.846 -0.068,0.123 -0.083,0.268 -0.042,0.402 0.041,0.134 0.135,0.246 0.261,0.309 0.456,0.23 0.934,0.399 1.426,0.504 -0.053,0.731 -0.252,1.495 -0.593,2.278 -0.063,0.145 -0.056,0.311 0.018,0.451 0.075,0.139 0.209,0.237 0.365,0.264 l 2.644,0.466 0.081,0.021 c -0.229,1.778 -0.44,3.615 -0.63,5.472 -0.053,0.567 -0.091,1.135 -0.115,1.688 -0.032,0.736 -0.039,1.467 -0.02,2.183 L 42.18,87.738 c 0.587,-1.572 0.917,-3.25 0.983,-4.995 0.011,-0.285 -0.211,-0.525 -0.496,-0.535 -0.281,-0.01 -0.525,0.211 -0.535,0.496 -0.069,1.832 -0.449,3.581 -1.127,5.2 -0.059,0.14 -0.053,0.299 0.016,0.434 0.069,0.135 0.194,0.233 0.341,0.268 l 3.554,0.841 c 0.023,0.365 0.053,0.728 0.089,1.084 0.027,0.266 0.251,0.464 0.513,0.464 0.018,0 0.035,-0.001 0.053,-0.003 0.284,-0.029 0.49,-0.283 0.461,-0.566 -0.047,-0.46 -0.082,-0.933 -0.106,-1.407 0,-0.008 0,-0.016 -0.001,-0.023 -0.044,-0.895 -0.045,-1.823 -0.005,-2.759 0.023,-0.536 0.061,-1.087 0.111,-1.632 0.188,-1.844 0.399,-3.673 0.627,-5.443 h 0.295 c 0.148,0 0.289,-0.064 0.387,-0.175 0.098,-0.111 0.144,-0.259 0.125,-0.406 -0.212,-1.687 -0.193,-3.505 0.054,-5.388 0.162,-1.006 0.335,-2.019 0.514,-3.013 10e-4,-0.002 10e-4,-0.005 10e-4,-0.007 1.128,-6.263 2.558,-12.022 4.251,-17.117 0.228,-0.689 0.467,-1.38 0.708,-2.054 0.049,-0.138 0.038,-0.291 -0.032,-0.42 -0.07,-0.129 -0.191,-0.222 -0.334,-0.256 L 52.061,50.191 63.57,39.26 l 0.816,1.995 c 0.387,1.497 0.596,3.102 0.623,4.778 l -1.25,0.512 c 0.128,-1.277 0.184,-2.249 0.169,-2.955 -0.017,-0.849 -0.043,-1.428 -0.08,-1.77 -0.037,-0.335 -0.1,-0.734 -0.187,-1.187 -0.054,-0.28 -0.326,-0.463 -0.605,-0.409 -0.28,0.054 -0.463,0.325 -0.409,0.605 0.082,0.426 0.141,0.798 0.174,1.104 0.033,0.307 0.058,0.872 0.075,1.68 0.017,0.799 -0.069,2.037 -0.255,3.679 -0.021,0.181 0.056,0.359 0.201,0.469 0.1,0.076 0.225,0.111 0.343,0.104 v 1.232 l -1.741,0.317 c 0.204,-2.149 0.3,-4.331 0.285,-6.497 -0.002,-0.284 -0.233,-0.513 -0.516,-0.513 -10e-4,0 -0.002,0 -0.003,0 -0.285,0.002 -0.515,0.235 -0.513,0.52 0.016,2.358 -0.101,4.736 -0.348,7.067 -0.017,0.162 0.043,0.322 0.162,0.433 0.119,0.111 0.284,0.158 0.444,0.13 l 2.84,-0.516 c 0.245,-0.045 0.424,-0.258 0.424,-0.508 v -2.054 l 0.597,-0.244 0.5,2.901 -0.855,0.149 c -0.001,0 -0.001,0 -0.002,0 l -1.351,0.237 c -0.281,0.049 -0.469,0.317 -0.419,0.598 0.049,0.281 0.318,0.469 0.598,0.419 l 0.669,-0.117 -0.308,2.593 h -2.02 c -0.285,0 -0.516,0.231 -0.516,0.516 0,0.285 0.231,0.516 0.516,0.516 h 1.108 l 0.349,3.142 -0.373,0.06 v 0 l -1.104,0.177 v -1.748 c 0,-0.285 -0.231,-0.516 -0.516,-0.516 -0.285,0 -0.516,0.231 -0.516,0.516 v 2.354 c 0,0.151 0.066,0.295 0.181,0.393 0.115,0.098 0.267,0.14 0.417,0.117 l 0.875,-0.141 -0.774,2.434 -1.575,0.25 c -0.282,0.045 -0.474,0.309 -0.429,0.591 0.044,0.282 0.308,0.475 0.591,0.429 l 1.411,-0.223 1.1,4.915 -0.196,0.038 c -10e-4,0 -0.002,0 -0.003,0.001 l -0.771,0.152 v -1.561 c 0,-0.285 -0.231,-0.516 -0.516,-0.516 -0.285,0 -0.516,0.231 -0.516,0.516 v 2.189 c 0,0.154 0.069,0.301 0.188,0.399 0.119,0.098 0.276,0.137 0.428,0.108 l 0.939,-0.185 0.78,2.413 -1.178,0.312 v -1.601 c 0,-0.285 -0.231,-0.516 -0.516,-0.516 -0.285,0 -0.516,0.231 -0.516,0.516 v 2.272 c 0,0.16 0.074,0.311 0.201,0.409 0.127,0.098 0.292,0.131 0.447,0.09 l 1.392,-0.368 0.663,1.894 -0.203,0.065 c -0.001,0 -0.001,0 -0.002,10e-4 l -2.388,0.763 c -0.271,0.087 -0.421,0.377 -0.334,0.649 0.087,0.272 0.377,0.421 0.649,0.334 l 1.962,-0.627 2.864,5.953 -0.885,0.397 c -10e-4,0 -10e-4,10e-4 -0.002,10e-4 l -0.786,0.353 -0.762,-3.469 c -0.061,-0.278 -0.335,-0.456 -0.615,-0.393 -0.279,0.061 -0.455,0.337 -0.393,0.615 l 0.898,4.089 c 0.033,0.152 0.133,0.281 0.272,0.35 0.139,0.07 0.302,0.073 0.444,0.01 l 0.89,-0.4 2.379,5.513 c 0.113,0.262 0.417,0.383 0.678,0.269 0.254,-0.123 0.375,-0.426 0.262,-0.688 z m -12.123,-73.366 4.393,8.494 1.195,6.177 -0.464,1.13 -1.041,-2.542 C 60.042,27.925 59.962,27.835 59.859,27.778 L 58.492,27.022 57.149,22.647 C 57.139,22.613 57.125,22.58 57.107,22.549 L 52.072,13.45 Z m -5.31,-1.686 5.485,9.912 1.183,3.855 H 54.809 L 53.887,22.697 C 53.878,22.655 53.863,22.614 53.843,22.575 L 49.366,13.76 c 0.48,-0.361 0.925,-0.585 1.328,-0.671 z m -2.343,0.952 4.542,8.943 0.858,3.872 h -0.839 l -1.747,-4.244 c -0.014,-0.034 -0.032,-0.067 -0.053,-0.097 l -6.07,-8.766 c 1.245,-0.109 2.354,-0.011 3.309,0.292 z m 0.06,8.751 c -0.013,-0.039 -0.03,-0.076 -0.052,-0.11 l -5.077,-8.186 c 0.184,-0.263 0.396,-0.447 0.637,-0.554 l 6.313,9.116 1.564,3.799 H 50.74 c -0.067,0 -0.133,0.013 -0.196,0.039 l -0.686,0.281 z m 1.324,5.55 c 10e-4,0 0.002,-10e-4 0.003,-10e-4 l 1.104,-0.452 h 7.086 l 1.273,0.705 1.449,3.538 c 0,0 0,0.001 0,0.001 l 1.394,3.404 -5.722,6.228 -8.111,7.524 c -0.018,0.017 -0.035,0.034 -0.05,0.053 l -0.427,-0.089 -5.899,-13.337 8.52,-5.098 5.982,-1.623 c 0.275,-0.075 0.438,-0.358 0.363,-0.633 -0.075,-0.275 -0.359,-0.438 -0.633,-0.363 l -5.984,1.624 H 46.1 Z m -7.108,18.08 c -0.351,-0.418 -0.806,-0.638 -1.314,-0.638 -0.087,0 -0.172,0.007 -0.255,0.02 l -4.895,-1.108 1.632,-6.363 1.071,-0.642 4.849,10.712 -0.643,-0.136 c 0.022,-0.126 0.034,-0.256 0.036,-0.39 0.01,-0.554 -0.15,-1.041 -0.481,-1.455 z m -2.757,0.171 c -0.173,0.254 -0.288,0.537 -0.344,0.847 -0.002,-0.032 -0.006,-0.065 -0.014,-0.097 -0.058,-0.235 -0.269,-0.393 -0.501,-0.393 -0.041,0 -0.083,0.005 -0.124,0.015 l -0.029,0.007 -0.372,-0.693 z m -0.113,-9.438 1.185,-0.707 5.546,12.541 -1.52,-0.321 z m 3.867,-6.302 h 4.659 l -6.927,4.145 -2.977,-0.44 z m -6.48,4.566 2.811,0.416 -0.695,0.414 -0.166,-0.028 c -0.005,-10e-4 -0.01,-0.002 -0.015,-0.003 l -2.503,-0.434 z m -1.849,1.191 2.61,0.452 -0.656,0.393 -2.543,-0.464 z m -1.598,1.247 3.012,0.55 -1.562,6.087 -0.456,-0.076 c -0.001,0 -0.002,0 -0.003,0 l -2.756,-0.453 z m -3.546,9.878 v -1.394 l 4.464,-0.89 0.816,0.137 1.985,0.449 -4.104,0.866 -2.012,-0.602 c -0.273,-0.082 -0.561,0.073 -0.643,0.346 -0.082,0.273 0.073,0.561 0.346,0.643 l 2.137,0.64 c 0.083,0.025 0.17,0.028 0.255,0.011 l 4.32,-0.911 0.109,0.203 -4.986,1.27 -2.69,-0.722 c 0.002,-0.015 0.003,-0.031 0.003,-0.046 z m 5.673,3.493 -4.999,-0.767 -1.762,-1.711 0.335,-0.107 c 0.023,0.01 0.046,0.018 0.071,0.024 l 3.232,0.867 c 0.085,0.023 0.175,0.024 0.261,0.002 l 5.755,-1.466 0.416,-0.103 c 0.176,-0.044 0.309,-0.173 0.364,-0.333 -0.008,0.074 -0.012,0.149 -0.013,0.226 -0.009,0.548 0.143,1.026 0.453,1.422 z m 6.125,-2.812 c 0,0.001 -10e-4,0.001 -10e-4,0.002 -0.039,0.077 -0.089,0.15 -0.152,0.223 -0.192,0.227 -0.362,0.271 -0.477,0.281 h -0.058 c -0.063,0 -0.121,-0.009 -0.176,-0.026 -0.002,-10e-4 -0.004,-10e-4 -0.006,-0.002 -0.116,-0.036 -0.222,-0.116 -0.323,-0.241 -0.166,-0.208 -0.244,-0.462 -0.239,-0.776 0.005,-0.316 0.095,-0.576 0.271,-0.791 0.116,-0.138 0.239,-0.22 0.374,-0.252 0.003,-0.001 0.006,-0.001 0.01,-0.002 0.043,-0.011 0.09,-0.016 0.14,-0.016 0.205,0 0.367,0.083 0.516,0.26 0.172,0.215 0.253,0.472 0.248,0.784 -0.003,0.213 -0.045,0.394 -0.127,0.556 z m 9.354,4.309 c -1.661,4.999 -3.07,10.627 -4.192,16.735 l -1.842,-0.405 c 0.224,-0.418 0.428,-0.855 0.611,-1.307 0.275,-0.68 0.507,-1.41 0.693,-2.176 l 0.335,0.098 c 0.135,0.04 0.279,0.022 0.401,-0.047 0.122,-0.069 0.21,-0.185 0.245,-0.321 l 0.733,-2.881 c 0.07,-0.276 -0.097,-0.557 -0.373,-0.628 -0.275,-0.071 -0.557,0.097 -0.628,0.373 l -0.601,2.362 -0.343,-0.1 c -0.003,-10e-4 -0.006,-0.002 -0.009,-0.003 l -0.766,-0.227 c 0.101,-0.194 0.201,-0.391 0.298,-0.588 0.598,-1.218 1.135,-2.522 1.595,-3.877 0.092,-0.27 -0.053,-0.563 -0.323,-0.655 -0.27,-0.092 -0.563,0.053 -0.655,0.323 -0.292,0.86 -0.616,1.699 -0.967,2.507 l -1.637,-0.386 c 0,0 -10e-4,0 -10e-4,0 l -0.06,-0.014 c 0.428,-0.603 0.722,-1.289 0.878,-2.05 0.214,0.041 0.428,0.076 0.644,0.105 0.171,0.021 0.343,0.039 0.514,0.053 0.274,0.025 0.518,-0.171 0.556,-0.443 0.274,-1.959 0.765,-3.884 1.459,-5.723 0.101,-0.267 -0.034,-0.564 -0.301,-0.665 -0.266,-0.101 -0.565,0.034 -0.665,0.301 -0.662,1.756 -1.146,3.587 -1.442,5.451 -0.352,-0.049 -0.708,-0.115 -1.062,-0.199 -0.005,-10e-4 -0.01,-0.002 -0.015,-0.003 -0.376,-0.089 -0.757,-0.2 -1.136,-0.331 0.433,-0.788 0.827,-1.597 1.174,-2.411 0,-0.001 10e-4,-0.002 10e-4,-0.002 0.394,-0.932 0.737,-1.897 1.021,-2.869 0.08,-0.274 -0.077,-0.56 -0.351,-0.64 -0.274,-0.08 -0.56,0.077 -0.64,0.351 -0.23,0.788 -0.501,1.571 -0.807,2.335 l -1.554,-0.446 c -10e-4,0 -0.002,0 -0.002,-0.001 l -0.067,-0.019 2.015,-2.935 6.343,0.895 c 0.284,0.04 0.544,-0.157 0.583,-0.439 0.039,-0.282 -0.157,-0.544 -0.439,-0.583 l -6.564,-0.926 -1.519,-0.85 c 0.049,-0.047 0.096,-0.098 0.141,-0.152 0.022,-0.026 0.044,-0.052 0.065,-0.079 l 1.853,0.392 c 0,0 10e-4,0 10e-4,0 l 2.761,0.583 c 10e-4,0 0.002,0 0.003,0.001 l 3.635,0.761 0.927,0.221 c -0.179,0.507 -0.354,1.021 -0.524,1.534 z m -0.449,-2.82 -1.462,-0.307 7.646,-7.092 c 0.01,-0.009 0.02,-0.019 0.029,-0.029 l 5.408,-5.887 0.673,1.638 z"
       id="path7"
       style="fill:#5c3082;fill-opacity:1;stroke:#5c3082;stroke-opacity:1" /><path
       d="m 61.31,81.229 -1.971,0.542 v 0 l -0.235,0.064 v -3.578 c 0,-0.285 -0.231,-0.516 -0.516,-0.516 -0.285,0 -0.516,0.231 -0.516,0.516 v 4.254 c 0,0.161 0.075,0.313 0.203,0.41 0.128,0.098 0.294,0.13 0.449,0.088 l 0.396,-0.108 1.138,3.983 -2.093,0.687 v -2.922 c 0,-0.285 -0.231,-0.516 -0.516,-0.516 -0.285,0 -0.516,0.231 -0.516,0.516 v 3.635 c 0,0.166 0.079,0.321 0.213,0.418 0.089,0.065 0.195,0.098 0.303,0.098 0.054,0 0.108,-0.008 0.161,-0.026 l 3.242,-1.064 c 0.264,-0.086 0.412,-0.366 0.335,-0.632 l -1.271,-4.45 1.469,-0.404 c 0.275,-0.075 0.436,-0.36 0.361,-0.635 -0.076,-0.274 -0.36,-0.436 -0.636,-0.36 z"
       id="path8"
       style="fill:#5c3082;fill-opacity:1;stroke:#5c3082;stroke-opacity:1" /><path
       d="m 56.042,36.903 c -0.215,-1.507 -0.669,-2.849 -1.348,-3.992 -0.751,-1.256 -1.692,-1.893 -2.798,-1.893 -1.105,0 -2.028,0.601 -2.743,1.786 -0.674,1.103 -1.015,2.375 -1.015,3.78 0,1.397 0.268,2.592 0.796,3.55 0.572,1.054 1.513,1.617 2.796,1.674 0.074,0.003 0.148,0.005 0.221,0.005 1.133,0 2.144,-0.393 3.011,-1.172 0.941,-0.862 1.305,-2.118 1.082,-3.735 -0.002,-0.002 -0.002,-0.002 -0.002,-0.003 z m -1.775,2.973 c -0.721,0.648 -1.537,0.943 -2.492,0.901 -0.908,-0.04 -1.541,-0.411 -1.935,-1.137 -0.444,-0.807 -0.669,-1.835 -0.669,-3.055 0,-1.212 0.291,-2.303 0.865,-3.244 0.524,-0.867 1.133,-1.289 1.861,-1.289 0.727,0 1.352,0.455 1.911,1.389 0.609,1.023 1.016,2.236 1.212,3.606 0.176,1.278 -0.072,2.204 -0.753,2.829 z"
       id="path9"
       style="fill:#5c3082;fill-opacity:1;stroke:#5c3082;stroke-opacity:1" /><path
       d="m 57.003,47.766 c -0.034,-0.283 -0.291,-0.484 -0.575,-0.45 -0.283,0.034 -0.485,0.292 -0.45,0.575 l 0.713,5.865 c 0.018,0.146 0.097,0.278 0.218,0.362 0.087,0.06 0.19,0.092 0.294,0.092 0.04,0 0.081,-0.005 0.121,-0.014 l 3.139,-0.754 c 0.138,-0.033 0.256,-0.121 0.327,-0.244 0.071,-0.123 0.088,-0.269 0.048,-0.405 l -1.477,-4.998 c -0.081,-0.273 -0.368,-0.43 -0.641,-0.349 -0.273,0.081 -0.43,0.368 -0.349,0.641 l 1.323,4.476 -2.047,0.492 z"
       id="path10"
       style="fill:#5c3082;fill-opacity:1;stroke:#5c3082;stroke-opacity:1" /><path
       d="m 51.95,56.715 c -0.282,-0.048 -0.547,0.143 -0.594,0.424 l -1.002,5.979 c -0.025,0.15 0.017,0.303 0.115,0.419 0.098,0.116 0.242,0.183 0.394,0.183 h 1.73 l -0.586,3.38 c -0.026,0.15 0.016,0.304 0.114,0.421 0.098,0.117 0.243,0.184 0.395,0.184 h 3.573 c 0.145,0 0.284,-0.061 0.382,-0.169 0.098,-0.108 0.146,-0.251 0.132,-0.396 l -0.171,-1.79 3.105,-0.501 c 0.281,-0.045 0.473,-0.31 0.427,-0.592 -0.045,-0.281 -0.31,-0.475 -0.592,-0.427 l -3.038,0.49 -0.072,-0.762 c -0.027,-0.284 -0.28,-0.488 -0.563,-0.465 -0.284,0.027 -0.492,0.279 -0.465,0.563 l 0.124,1.311 c 0,0.001 0,0.001 0,0.002 l 0.163,1.705 H 53.13 l 0.512,-2.953 h 0.701 c 0.153,0 0.297,-0.068 0.396,-0.184 0.098,-0.117 0.139,-0.271 0.113,-0.421 L 54.16,59.182 c -0.049,-0.281 -0.316,-0.47 -0.598,-0.419 -0.281,0.049 -0.468,0.317 -0.419,0.598 l 0.585,3.328 h -0.512 c -0.006,0 -0.012,0 -0.018,0 h -1.724 l 0.901,-5.377 c 0.046,-0.284 -0.143,-0.55 -0.425,-0.597 z"
       id="path11"
       style="fill:#5c3082;fill-opacity:1;stroke:#5c3082;stroke-opacity:1" /><path
       d="m 53.693,49.439 c -0.285,0 -0.516,0.231 -0.516,0.516 v 6.371 c 0,0.152 0.067,0.296 0.183,0.394 0.116,0.098 0.27,0.14 0.419,0.115 l 1.21,-0.205 0.285,3.527 c 0.012,0.144 0.083,0.277 0.197,0.366 0.091,0.071 0.203,0.109 0.317,0.109 0.028,0 0.057,-0.002 0.086,-0.007 l 3.139,-0.527 c 0.137,-0.023 0.26,-0.101 0.339,-0.215 0.079,-0.115 0.109,-0.256 0.083,-0.393 l -0.506,-2.592 c -0.055,-0.28 -0.326,-0.462 -0.606,-0.408 -0.28,0.055 -0.462,0.326 -0.408,0.606 l 0.405,2.071 -2.061,0.346 -0.247,-3.056 1.309,-0.221 c 0.281,-0.047 0.47,-0.314 0.423,-0.595 -0.047,-0.281 -0.312,-0.472 -0.595,-0.423 l -1.771,0.299 c -0.003,10e-4 -0.007,10e-4 -0.01,0.002 l -1.157,0.196 v -5.76 C 54.209,49.67 53.978,49.439 53.693,49.439 Z"
       id="path12"
       style="fill:#5c3082;fill-opacity:1;stroke:#5c3082;stroke-opacity:1" /><path
       d="m 52.165,35.572 c -0.275,0 -0.516,0.096 -0.723,0.289 -0.193,0.206 -0.289,0.447 -0.289,0.723 0,0.275 0.096,0.513 0.289,0.712 0.206,0.2 0.447,0.299 0.723,0.299 0.276,0 0.513,-0.1 0.712,-0.299 0.2,-0.2 0.299,-0.437 0.299,-0.712 0,-0.275 -0.1,-0.516 -0.299,-0.723 -0.2,-0.193 -0.437,-0.289 -0.712,-0.289 z"
       id="path13"
       style="fill:#5c3082;fill-opacity:1;stroke:#5c3082;stroke-opacity:1" /><path
       d="m 52.506,82.737 c -0.281,0.051 -0.467,0.32 -0.416,0.6 l 0.561,3.088 h -2.945 l 0.607,-5.39 h 2.337 c 0.154,0 0.299,-0.068 0.397,-0.187 0.098,-0.118 0.138,-0.274 0.11,-0.425 l -0.816,-4.358 c -0.052,-0.28 -0.322,-0.465 -0.602,-0.412 -0.28,0.052 -0.465,0.322 -0.412,0.602 l 0.701,3.746 h -2.17 c -0.004,0 -0.009,0 -0.014,0 h -1.03 l 0.364,-4.199 c 0.025,-0.284 -0.186,-0.534 -0.47,-0.559 -0.284,-0.026 -0.534,0.186 -0.559,0.47 l -0.413,4.76 c -0.013,0.144 0.036,0.287 0.134,0.393 0.098,0.107 0.236,0.167 0.381,0.167 h 1.023 l -0.658,5.848 c -0.016,0.146 0.03,0.292 0.128,0.402 0.098,0.109 0.238,0.172 0.385,0.172 h 4.141 c 0.153,0 0.298,-0.068 0.396,-0.185 0.098,-0.118 0.139,-0.273 0.112,-0.423 L 53.107,83.15 c -0.052,-0.278 -0.322,-0.465 -0.601,-0.413 z"
       id="path14"
       style="fill:#5c3082;fill-opacity:1;stroke:#5c3082;stroke-opacity:1" /><path
       d="m 37.433,72.567 c 0.055,0.144 0.171,0.255 0.317,0.304 l 2.261,0.764 c 0.054,0.018 0.11,0.027 0.165,0.027 0.082,0 0.163,-0.019 0.237,-0.058 0.124,-0.065 0.217,-0.177 0.257,-0.311 l 1.002,-3.356 c 0.082,-0.273 -0.074,-0.561 -0.347,-0.642 -0.273,-0.082 -0.561,0.074 -0.642,0.347 l -0.849,2.843 -1.17,-0.395 c 0.235,-0.437 0.464,-0.887 0.682,-1.341 0.002,-0.004 0.004,-0.009 0.007,-0.013 0.336,-0.696 0.659,-1.424 0.96,-2.166 0.107,-0.264 -0.02,-0.565 -0.284,-0.673 -0.264,-0.107 -0.565,0.02 -0.672,0.284 -0.236,0.58 -0.485,1.152 -0.743,1.706 l -1.489,-0.484 c -0.271,-0.087 -0.562,0.06 -0.651,0.331 -0.088,0.271 0.06,0.562 0.331,0.651 l 1.354,0.44 c -0.224,0.445 -0.456,0.881 -0.694,1.304 -0.075,0.134 -0.087,0.294 -0.032,0.438 z"
       id="path15"
       style="fill:#5c3082;fill-opacity:1;stroke:#5c3082;stroke-opacity:1" /><path
       d="m 39.024,82.261 c -0.281,-0.049 -0.548,0.142 -0.595,0.422 -0.337,1.985 -0.497,3.853 -0.475,5.562 -0.659,-0.086 -1.3,-0.313 -1.916,-0.677 0.225,-0.821 0.41,-1.608 0.552,-2.344 0,0 0,-0.001 0,-0.001 0.227,-1.165 0.353,-2.243 0.376,-3.205 0.007,-0.285 -0.219,-0.522 -0.504,-0.528 -0.288,-0.012 -0.522,0.219 -0.528,0.504 -0.017,0.73 -0.099,1.537 -0.244,2.404 l -1.493,-0.631 c 0.631,-1.519 1.05,-3.056 1.247,-4.575 0.037,-0.283 -0.163,-0.542 -0.445,-0.579 -0.281,-0.035 -0.542,0.163 -0.578,0.445 -0.205,1.581 -0.668,3.186 -1.374,4.771 -0.056,0.127 -0.06,0.271 -0.009,0.4 0.051,0.129 0.152,0.232 0.279,0.286 l 2.178,0.92 c -0.147,0.701 -0.332,1.446 -0.553,2.221 -0.061,0.215 0.023,0.444 0.207,0.569 1.043,0.706 2.162,1.073 3.328,1.09 0.003,0 0.005,0 0.008,0 0.139,0 0.272,-0.056 0.369,-0.155 0.099,-0.101 0.152,-0.239 0.147,-0.38 -0.067,-1.791 0.084,-3.785 0.447,-5.924 0.046,-0.281 -0.143,-0.548 -0.424,-0.595 z"
       id="path16"
       style="fill:#5c3082;fill-opacity:1;stroke:#5c3082;stroke-opacity:1" /><path
       d="m 58.156,74.65 -0.681,-3.986 c -0.048,-0.281 -0.314,-0.469 -0.596,-0.422 -0.281,0.048 -0.47,0.315 -0.422,0.596 l 0.595,3.48 -2.451,0.433 v -2.227 c 0,-0.005 0,-0.01 0,-0.015 v -1.613 c 0,-0.285 -0.231,-0.516 -0.516,-0.516 -0.285,0 -0.516,0.231 -0.516,0.516 v 1.036 l -3.016,-0.379 0.859,-3.036 c 0.078,-0.274 -0.082,-0.56 -0.356,-0.637 -0.275,-0.078 -0.56,0.082 -0.637,0.356 l -1.022,3.614 c -0.041,0.145 -0.017,0.3 0.066,0.426 0.083,0.125 0.217,0.208 0.366,0.227 l 3.74,0.47 v 2.394 c 0,0.153 0.068,0.297 0.185,0.396 0.094,0.079 0.211,0.121 0.332,0.121 0.03,0 0.06,-0.003 0.09,-0.008 l 3.562,-0.63 c 0.279,-0.05 0.466,-0.316 0.418,-0.596 z"
       id="path17"
       style="fill:#5c3082;fill-opacity:1;stroke:#5c3082;stroke-opacity:1" /><path
       d="m 40.427,76.905 c -0.279,-0.058 -0.553,0.12 -0.611,0.399 l -0.526,2.51 C 38.703,79.685 38.136,79.49 37.596,79.231 l 2.092,-4.644 c 0.117,-0.26 10e-4,-0.566 -0.259,-0.683 -0.26,-0.117 -0.566,-10e-4 -0.683,0.259 l -2.292,5.09 c -0.11,0.245 -0.014,0.533 0.22,0.663 0.914,0.507 1.902,0.847 2.938,1.009 0.027,0.004 0.054,0.006 0.08,0.006 0.24,0 0.454,-0.168 0.505,-0.41 l 0.63,-3.005 c 0.058,-0.279 -0.121,-0.552 -0.4,-0.611 z"
       id="path18"
       style="fill:#5c3082;fill-opacity:1;stroke:#5c3082;stroke-opacity:1" /><path
       d="m 68.127,88.141 -2.385,-5.527 0.904,-0.406 c 0.127,-0.057 0.226,-0.163 0.273,-0.294 0.048,-0.131 0.041,-0.275 -0.02,-0.401 l -3.032,-6.301 0.143,-0.046 c 0.132,-0.043 0.242,-0.137 0.304,-0.262 0.062,-0.125 0.071,-0.269 0.025,-0.401 l -0.811,-2.316 c 0.119,-0.042 0.219,-0.126 0.281,-0.238 0.069,-0.125 0.083,-0.272 0.039,-0.408 l -0.91,-2.817 0.146,-0.028 c 0.137,-0.027 0.257,-0.107 0.334,-0.224 0.076,-0.117 0.102,-0.259 0.072,-0.396 l -1.291,-5.77 0.987,-3.101 0.544,-0.089 c 0.271,-0.044 0.461,-0.293 0.43,-0.567 l -0.391,-3.516 h 0.332 c 0.262,0 0.482,-0.196 0.513,-0.455 l 0.399,-3.356 0.984,-0.172 c 0.281,-0.049 0.469,-0.316 0.42,-0.596 l -0.628,-3.64 c 0.156,-0.092 0.253,-0.26 0.253,-0.445 -0.002,-1.9 -0.226,-3.723 -0.667,-5.416 -0.006,-0.022 -0.013,-0.044 -0.022,-0.065 l -1.11,-2.715 C 64.24,38.165 64.237,38.157 64.233,38.15 l -1.107,-2.694 c -0.003,-0.007 -0.005,-0.013 -0.008,-0.02 l -1.433,-3.5 0.921,-2.241 c 0.038,-0.093 0.048,-0.195 0.029,-0.294 L 61.396,23 C 61.387,22.952 61.37,22.905 61.348,22.861 l -4.522,-8.746 c -0.062,-0.119 -0.167,-0.209 -0.294,-0.252 l -5.388,-1.817 c -0.004,-10e-4 -0.008,-0.002 -0.011,-0.004 0,0 0,0 -0.001,0 -10e-4,0 -0.002,-10e-4 -0.002,-10e-4 0,0 -0.001,0 -0.002,-0.001 -10e-4,-10e-4 -10e-4,0 -0.002,-10e-4 v 0 c -10e-4,0 -0.002,0 -0.002,-10e-4 -0.001,0 -0.003,-10e-4 -0.004,-10e-4 0,0 0,0 0,0 -10e-4,0 -0.002,-0.001 -0.004,-0.001 -10e-4,0 -0.002,0 -0.002,-10e-4 -10e-4,0 -10e-4,0 -0.002,0 -0.001,0 -0.001,0 -0.002,-10e-4 -10e-4,0 -10e-4,0 -10e-4,0 -0.052,-0.014 -0.107,-0.019 -0.162,-0.016 -0.729,0.03 -1.514,0.373 -2.337,1.02 -1.295,-0.401 -2.815,-0.473 -4.536,-0.213 -0.016,0.002 -0.033,0.004 -0.049,0.008 -0.765,0.146 -1.371,0.622 -1.802,1.415 -0.089,0.163 -0.083,0.361 0.015,0.519 l 5.213,8.404 1.451,4.393 -5.624,2.287 c -0.043,0.016 -0.083,0.038 -0.12,0.065 l -6.419,4.533 -1.832,1.18 c -10e-4,0.001 -0.002,0.001 -0.003,0.002 l -1.852,1.197 c -0.016,0.01 -0.032,0.022 -0.047,0.034 0,0 0,0 -0.001,10e-4 -0.08,0.066 -0.141,0.156 -0.17,0.262 l -2.053,7.108 c -0.041,0.142 -0.019,0.294 0.06,0.419 0.079,0.125 0.207,0.21 0.353,0.234 l 0.528,0.087 -2.187,0.436 c -0.242,0.048 -0.415,0.26 -0.415,0.506 v 1.731 l -1.189,0.38 c -0.173,0.055 -0.304,0.197 -0.346,0.374 -0.042,0.177 0.013,0.362 0.143,0.489 l 2.499,2.427 c 0.077,0.075 0.175,0.124 0.281,0.14 l 5.318,0.816 c 0.102,0.016 0.206,0.001 0.299,-0.044 l 4.86,-2.297 c 0.072,0.012 0.146,0.02 0.22,0.023 l 1.843,1.032 -2.282,3.323 c -0.094,0.137 -0.116,0.311 -0.06,0.467 0.056,0.156 0.184,0.276 0.344,0.322 l 0.226,0.065 c -0.579,1.502 -1.417,2.92 -2.495,4.221 -0.109,0.132 -0.146,0.31 -0.098,0.475 0.048,0.165 0.175,0.295 0.338,0.347 l 0.082,0.026 -3.44,7.772 -2.245,3.731 c -0.081,0.134 -0.096,0.298 -0.042,0.444 0.054,0.147 0.172,0.261 0.32,0.311 l 0.758,0.255 -1.875,3.298 c -0.015,0.026 -0.029,0.054 -0.04,0.083 l -0.599,1.601 c -1.044,2.813 -1.541,5.639 -1.478,8.4 0.007,0.285 0.238,0.518 0.528,0.504 0.285,-0.006 0.511,-0.243 0.504,-0.528 -0.06,-2.63 0.415,-5.328 1.413,-8.016 l 0.419,-1.12 2.482,0.908 c 0.133,0.049 0.28,0.041 0.406,-0.022 0.127,-0.063 0.222,-0.175 0.264,-0.31 l 0.857,-2.757 c 0.085,-0.272 -0.067,-0.562 -0.34,-0.646 -0.272,-0.083 -0.562,0.068 -0.646,0.34 l -0.696,2.239 -1.881,-0.688 1.678,-2.952 0.96,0.32 c 0.271,0.09 0.563,-0.056 0.653,-0.326 0.09,-0.271 -0.056,-0.563 -0.327,-0.653 l -1.363,-0.454 c 0,0 0,0 0,0 l -0.742,-0.249 1.93,-3.208 c 0.011,-0.019 0.021,-0.038 0.03,-0.057 l 3.499,-7.905 1.697,0.537 c 0.272,0.086 0.562,-0.065 0.648,-0.337 0.086,-0.272 -0.065,-0.562 -0.336,-0.648 l -2.054,-0.65 c 0.945,-1.247 1.691,-2.588 2.226,-4 l 0.966,0.277 c -0.353,0.778 -0.749,1.547 -1.182,2.294 -0.075,0.13 -0.09,0.286 -0.041,0.427 0.049,0.142 0.157,0.255 0.296,0.311 0.458,0.183 0.921,0.34 1.381,0.467 -0.174,0.881 -0.56,1.614 -1.174,2.231 -0.132,0.133 -0.182,0.326 -0.13,0.506 0.051,0.18 0.196,0.318 0.378,0.361 l 0.151,0.036 c -0.723,1.126 -1.28,2.268 -1.662,3.407 -0.527,-0.095 -1.015,-0.237 -1.46,-0.423 0.508,-0.743 0.964,-1.625 1.36,-2.631 0.104,-0.265 -0.026,-0.565 -0.291,-0.669 -0.266,-0.104 -0.565,0.026 -0.669,0.291 -0.454,1.155 -0.988,2.125 -1.587,2.884 -0.094,0.119 -0.131,0.274 -0.101,0.422 0.03,0.149 0.124,0.277 0.257,0.35 0.799,0.439 1.736,0.73 2.785,0.865 0.251,0.031 0.489,-0.123 0.561,-0.365 0.383,-1.291 1.014,-2.594 1.878,-3.879 l 1.093,0.258 c -0.046,0.097 -0.093,0.193 -0.14,0.288 -0.185,0.375 -0.38,0.749 -0.578,1.111 -0.075,0.137 -0.084,0.3 -0.025,0.445 0.059,0.144 0.181,0.254 0.331,0.298 l 0.915,0.271 c -0.129,0.537 -0.281,1.054 -0.456,1.546 l -1.71,-0.524 c -0.273,-0.083 -0.561,0.07 -0.645,0.342 -0.083,0.273 0.07,0.561 0.343,0.645 l 1.628,0.499 c -0.212,0.474 -0.45,0.926 -0.709,1.351 -0.087,0.142 -0.1,0.318 -0.035,0.472 0.065,0.154 0.201,0.266 0.364,0.302 l 2.567,0.565 c -0.149,0.843 -0.294,1.699 -0.433,2.561 -0.232,1.765 -0.273,3.468 -0.122,5.071 C 46.351,78.104 46.326,78.097 46.3,78.093 L 45.757,77.996 C 45.753,77.995 45.75,77.995 45.746,77.994 L 43.71,77.635 c 0.237,-0.666 0.382,-1.323 0.433,-1.962 0.307,0.01 0.62,-0.003 0.935,-0.038 0.283,-0.031 0.488,-0.287 0.456,-0.57 -0.032,-0.283 -0.285,-0.488 -0.57,-0.456 -0.429,0.048 -0.849,0.046 -1.249,-0.004 0,0 0,0 -0.001,0 -0.368,-0.047 -0.728,-0.137 -1.076,-0.269 0.438,-0.885 0.74,-1.779 0.899,-2.664 0.05,-0.281 -0.136,-0.549 -0.417,-0.599 -0.279,-0.049 -0.549,0.136 -0.599,0.417 -0.169,0.941 -0.521,1.898 -1.048,2.846 -0.068,0.123 -0.083,0.268 -0.042,0.402 0.041,0.134 0.135,0.246 0.261,0.309 0.456,0.23 0.934,0.399 1.426,0.504 -0.053,0.731 -0.252,1.495 -0.593,2.278 -0.063,0.145 -0.056,0.311 0.018,0.451 0.075,0.139 0.209,0.237 0.365,0.264 l 2.644,0.466 0.081,0.021 c -0.229,1.778 -0.44,3.615 -0.63,5.472 -0.053,0.567 -0.091,1.135 -0.115,1.688 -0.032,0.736 -0.039,1.467 -0.02,2.183 L 42.18,87.738 c 0.587,-1.572 0.917,-3.25 0.983,-4.995 0.011,-0.285 -0.211,-0.525 -0.496,-0.535 -0.281,-0.01 -0.525,0.211 -0.535,0.496 -0.069,1.832 -0.449,3.581 -1.127,5.2 -0.059,0.14 -0.053,0.299 0.016,0.434 0.069,0.135 0.194,0.233 0.341,0.268 l 3.554,0.841 c 0.023,0.365 0.053,0.728 0.089,1.084 0.027,0.266 0.251,0.464 0.513,0.464 0.018,0 0.035,-0.001 0.053,-0.003 0.284,-0.029 0.49,-0.283 0.461,-0.566 -0.047,-0.46 -0.082,-0.933 -0.106,-1.407 0,-0.008 0,-0.016 -0.001,-0.023 -0.044,-0.895 -0.045,-1.823 -0.005,-2.759 0.023,-0.536 0.061,-1.087 0.111,-1.632 0.188,-1.844 0.399,-3.673 0.627,-5.443 h 0.295 c 0.148,0 0.289,-0.064 0.387,-0.175 0.098,-0.111 0.144,-0.259 0.125,-0.406 -0.212,-1.687 -0.193,-3.505 0.054,-5.388 0.162,-1.006 0.335,-2.019 0.514,-3.013 10e-4,-0.002 10e-4,-0.005 10e-4,-0.007 1.128,-6.263 2.558,-12.022 4.251,-17.117 0.228,-0.689 0.467,-1.38 0.708,-2.054 0.049,-0.138 0.038,-0.291 -0.032,-0.42 -0.07,-0.129 -0.191,-0.222 -0.334,-0.256 L 52.061,50.191 63.57,39.26 l 0.816,1.995 c 0.387,1.497 0.596,3.102 0.623,4.778 l -1.25,0.512 c 0.128,-1.277 0.184,-2.249 0.169,-2.955 -0.017,-0.849 -0.043,-1.428 -0.08,-1.77 -0.037,-0.335 -0.1,-0.734 -0.187,-1.187 -0.054,-0.28 -0.326,-0.463 -0.605,-0.409 -0.28,0.054 -0.463,0.325 -0.409,0.605 0.082,0.426 0.141,0.798 0.174,1.104 0.033,0.307 0.058,0.872 0.075,1.68 0.017,0.799 -0.069,2.037 -0.255,3.679 -0.021,0.181 0.056,0.359 0.201,0.469 0.1,0.076 0.225,0.111 0.343,0.104 v 1.232 l -1.741,0.317 c 0.204,-2.149 0.3,-4.331 0.285,-6.497 -0.002,-0.284 -0.233,-0.513 -0.516,-0.513 -10e-4,0 -0.002,0 -0.003,0 -0.285,0.002 -0.515,0.235 -0.513,0.52 0.016,2.358 -0.101,4.736 -0.348,7.067 -0.017,0.162 0.043,0.322 0.162,0.433 0.119,0.111 0.284,0.158 0.444,0.13 l 2.84,-0.516 c 0.245,-0.045 0.424,-0.258 0.424,-0.508 v -2.054 l 0.597,-0.244 0.5,2.901 -0.855,0.149 c -0.001,0 -0.001,0 -0.002,0 l -1.351,0.237 c -0.281,0.049 -0.469,0.317 -0.419,0.598 0.049,0.281 0.318,0.469 0.598,0.419 l 0.669,-0.117 -0.308,2.593 h -2.02 c -0.285,0 -0.516,0.231 -0.516,0.516 0,0.285 0.231,0.516 0.516,0.516 h 1.108 l 0.349,3.142 -0.373,0.06 v 0 l -1.104,0.177 v -1.748 c 0,-0.285 -0.231,-0.516 -0.516,-0.516 -0.285,0 -0.516,0.231 -0.516,0.516 v 2.354 c 0,0.151 0.066,0.295 0.181,0.393 0.115,0.098 0.267,0.14 0.417,0.117 l 0.875,-0.141 -0.774,2.434 -1.575,0.25 c -0.282,0.045 -0.474,0.309 -0.429,0.591 0.044,0.282 0.308,0.475 0.591,0.429 l 1.411,-0.223 1.1,4.915 -0.196,0.038 c -10e-4,0 -0.002,0 -0.003,0.001 l -0.771,0.152 v -1.561 c 0,-0.285 -0.231,-0.516 -0.516,-0.516 -0.285,0 -0.516,0.231 -0.516,0.516 v 2.189 c 0,0.154 0.069,0.301 0.188,0.399 0.119,0.098 0.276,0.137 0.428,0.108 l 0.939,-0.185 0.78,2.413 -1.178,0.312 v -1.601 c 0,-0.285 -0.231,-0.516 -0.516,-0.516 -0.285,0 -0.516,0.231 -0.516,0.516 v 2.272 c 0,0.16 0.074,0.311 0.201,0.409 0.127,0.098 0.292,0.131 0.447,0.09 l 1.392,-0.368 0.663,1.894 -0.203,0.065 c -0.001,0 -0.001,0 -0.002,10e-4 l -2.388,0.763 c -0.271,0.087 -0.421,0.377 -0.334,0.649 0.087,0.272 0.377,0.421 0.649,0.334 l 1.962,-0.627 2.864,5.953 -0.885,0.397 c -10e-4,0 -10e-4,10e-4 -0.002,10e-4 l -0.786,0.353 -0.762,-3.469 c -0.061,-0.278 -0.335,-0.456 -0.615,-0.393 -0.279,0.061 -0.455,0.337 -0.393,0.615 l 0.898,4.089 c 0.033,0.152 0.133,0.281 0.272,0.35 0.139,0.07 0.302,0.073 0.444,0.01 l 0.89,-0.4 2.379,5.513 c 0.113,0.262 0.417,0.383 0.678,0.269 0.254,-0.123 0.375,-0.426 0.262,-0.688 z m -12.123,-73.366 4.393,8.494 1.195,6.177 -0.464,1.13 -1.041,-2.542 C 60.042,27.925 59.962,27.835 59.859,27.778 L 58.492,27.022 57.149,22.647 C 57.139,22.613 57.125,22.58 57.107,22.549 L 52.072,13.45 Z m -5.31,-1.686 5.485,9.912 1.183,3.855 H 54.809 L 53.887,22.697 C 53.878,22.655 53.863,22.614 53.843,22.575 L 49.366,13.76 c 0.48,-0.361 0.925,-0.585 1.328,-0.671 z m -2.343,0.952 4.542,8.943 0.858,3.872 h -0.839 l -1.747,-4.244 c -0.014,-0.034 -0.032,-0.067 -0.053,-0.097 l -6.07,-8.766 c 1.245,-0.109 2.354,-0.011 3.309,0.292 z m 0.06,8.751 c -0.013,-0.039 -0.03,-0.076 -0.052,-0.11 l -5.077,-8.186 c 0.184,-0.263 0.396,-0.447 0.637,-0.554 l 6.313,9.116 1.564,3.799 H 50.74 c -0.067,0 -0.133,0.013 -0.196,0.039 l -0.686,0.281 z m 1.324,5.55 c 10e-4,0 0.002,-10e-4 0.003,-10e-4 l 1.104,-0.452 h 7.086 l 1.273,0.705 1.449,3.538 c 0,0 0,0.001 0,0.001 l 1.394,3.404 -5.722,6.228 -8.111,7.524 c -0.018,0.017 -0.035,0.034 -0.05,0.053 l -0.427,-0.089 -5.899,-13.337 8.52,-5.098 5.982,-1.623 c 0.275,-0.075 0.438,-0.358 0.363,-0.633 -0.075,-0.275 -0.359,-0.438 -0.633,-0.363 l -5.984,1.624 H 46.1 Z m -7.108,18.08 c -0.351,-0.418 -0.806,-0.638 -1.314,-0.638 -0.087,0 -0.172,0.007 -0.255,0.02 l -4.895,-1.108 1.632,-6.363 1.071,-0.642 4.849,10.712 -0.643,-0.136 c 0.022,-0.126 0.034,-0.256 0.036,-0.39 0.01,-0.554 -0.15,-1.041 -0.481,-1.455 z m -2.757,0.171 c -0.173,0.254 -0.288,0.537 -0.344,0.847 -0.002,-0.032 -0.006,-0.065 -0.014,-0.097 -0.058,-0.235 -0.269,-0.393 -0.501,-0.393 -0.041,0 -0.083,0.005 -0.124,0.015 l -0.029,0.007 -0.372,-0.693 z m -0.113,-9.438 1.185,-0.707 5.546,12.541 -1.52,-0.321 z m 3.867,-6.302 h 4.659 l -6.927,4.145 -2.977,-0.44 z m -6.48,4.566 2.811,0.416 -0.695,0.414 -0.166,-0.028 c -0.005,-10e-4 -0.01,-0.002 -0.015,-0.003 l -2.503,-0.434 z m -1.849,1.191 2.61,0.452 -0.656,0.393 -2.543,-0.464 z m -1.598,1.247 3.012,0.55 -1.562,6.087 -0.456,-0.076 c -0.001,0 -0.002,0 -0.003,0 l -2.756,-0.453 z m -3.546,9.878 v -1.394 l 4.464,-0.89 0.816,0.137 1.985,0.449 -4.104,0.866 -2.012,-0.602 c -0.273,-0.082 -0.561,0.073 -0.643,0.346 -0.082,0.273 0.073,0.561 0.346,0.643 l 2.137,0.64 c 0.083,0.025 0.17,0.028 0.255,0.011 l 4.32,-0.911 0.109,0.203 -4.986,1.27 -2.69,-0.722 c 0.002,-0.015 0.003,-0.031 0.003,-0.046 z m 5.673,3.493 -4.999,-0.767 -1.762,-1.711 0.335,-0.107 c 0.023,0.01 0.046,0.018 0.071,0.024 l 3.232,0.867 c 0.085,0.023 0.175,0.024 0.261,0.002 l 5.755,-1.466 0.416,-0.103 c 0.176,-0.044 0.309,-0.173 0.364,-0.333 -0.008,0.074 -0.012,0.149 -0.013,0.226 -0.009,0.548 0.143,1.026 0.453,1.422 z m 6.125,-2.812 c 0,0.001 -10e-4,0.001 -10e-4,0.002 -0.039,0.077 -0.089,0.15 -0.152,0.223 -0.192,0.227 -0.362,0.271 -0.477,0.281 h -0.058 c -0.063,0 -0.121,-0.009 -0.176,-0.026 -0.002,-10e-4 -0.004,-10e-4 -0.006,-0.002 -0.116,-0.036 -0.222,-0.116 -0.323,-0.241 -0.166,-0.208 -0.244,-0.462 -0.239,-0.776 0.005,-0.316 0.095,-0.576 0.271,-0.791 0.116,-0.138 0.239,-0.22 0.374,-0.252 0.003,-0.001 0.006,-0.001 0.01,-0.002 0.043,-0.011 0.09,-0.016 0.14,-0.016 0.205,0 0.367,0.083 0.516,0.26 0.172,0.215 0.253,0.472 0.248,0.784 -0.003,0.213 -0.045,0.394 -0.127,0.556 z m 9.354,4.309 c -1.661,4.999 -3.07,10.627 -4.192,16.735 l -1.842,-0.405 c 0.224,-0.418 0.428,-0.855 0.611,-1.307 0.275,-0.68 0.507,-1.41 0.693,-2.176 l 0.335,0.098 c 0.135,0.04 0.279,0.022 0.401,-0.047 0.122,-0.069 0.21,-0.185 0.245,-0.321 l 0.733,-2.881 c 0.07,-0.276 -0.097,-0.557 -0.373,-0.628 -0.275,-0.071 -0.557,0.097 -0.628,0.373 l -0.601,2.362 -0.343,-0.1 c -0.003,-10e-4 -0.006,-0.002 -0.009,-0.003 l -0.766,-0.227 c 0.101,-0.194 0.201,-0.391 0.298,-0.588 0.598,-1.218 1.135,-2.522 1.595,-3.877 0.092,-0.27 -0.053,-0.563 -0.323,-0.655 -0.27,-0.092 -0.563,0.053 -0.655,0.323 -0.292,0.86 -0.616,1.699 -0.967,2.507 l -1.637,-0.386 c 0,0 -10e-4,0 -10e-4,0 l -0.06,-0.014 c 0.428,-0.603 0.722,-1.289 0.878,-2.05 0.214,0.041 0.428,0.076 0.644,0.105 0.171,0.021 0.343,0.039 0.514,0.053 0.274,0.025 0.518,-0.171 0.556,-0.443 0.274,-1.959 0.765,-3.884 1.459,-5.723 0.101,-0.267 -0.034,-0.564 -0.301,-0.665 -0.266,-0.101 -0.565,0.034 -0.665,0.301 -0.662,1.756 -1.146,3.587 -1.442,5.451 -0.352,-0.049 -0.708,-0.115 -1.062,-0.199 -0.005,-10e-4 -0.01,-0.002 -0.015,-0.003 -0.376,-0.089 -0.757,-0.2 -1.136,-0.331 0.433,-0.788 0.827,-1.597 1.174,-2.411 0,-0.001 10e-4,-0.002 10e-4,-0.002 0.394,-0.932 0.737,-1.897 1.021,-2.869 0.08,-0.274 -0.077,-0.56 -0.351,-0.64 -0.274,-0.08 -0.56,0.077 -0.64,0.351 -0.23,0.788 -0.501,1.571 -0.807,2.335 l -1.554,-0.446 c -10e-4,0 -0.002,0 -0.002,-0.001 l -0.067,-0.019 2.015,-2.935 6.343,0.895 c 0.284,0.04 0.544,-0.157 0.583,-0.439 0.039,-0.282 -0.157,-0.544 -0.439,-0.583 l -6.564,-0.926 -1.519,-0.85 c 0.049,-0.047 0.096,-0.098 0.141,-0.152 0.022,-0.026 0.044,-0.052 0.065,-0.079 l 1.853,0.392 c 0,0 10e-4,0 10e-4,0 l 2.761,0.583 c 10e-4,0 0.002,0 0.003,0.001 l 3.635,0.761 0.927,0.221 c -0.179,0.507 -0.354,1.021 -0.524,1.534 z m -0.449,-2.82 -1.462,-0.307 7.646,-7.092 c 0.01,-0.009 0.02,-0.019 0.029,-0.029 l 5.408,-5.887 0.673,1.638 z"
       id="path19"
       style="fill:#5c3082;fill-opacity:1;stroke:#5c3082;stroke-opacity:1" /><path
       d="m 61.31,81.229 -1.971,0.542 v 0 l -0.235,0.064 v -3.578 c 0,-0.285 -0.231,-0.516 -0.516,-0.516 -0.285,0 -0.516,0.231 -0.516,0.516 v 4.254 c 0,0.161 0.075,0.313 0.203,0.41 0.128,0.098 0.294,0.13 0.449,0.088 l 0.396,-0.108 1.138,3.983 -2.093,0.687 v -2.922 c 0,-0.285 -0.231,-0.516 -0.516,-0.516 -0.285,0 -0.516,0.231 -0.516,0.516 v 3.635 c 0,0.166 0.079,0.321 0.213,0.418 0.089,0.065 0.195,0.098 0.303,0.098 0.054,0 0.108,-0.008 0.161,-0.026 l 3.242,-1.064 c 0.264,-0.086 0.412,-0.366 0.335,-0.632 l -1.271,-4.45 1.469,-0.404 c 0.275,-0.075 0.436,-0.36 0.361,-0.635 -0.076,-0.274 -0.36,-0.436 -0.636,-0.36 z"
       id="path20"
       style="fill:#5c3082;fill-opacity:1;stroke:#5c3082;stroke-opacity:1" /><path
       d="m 56.042,36.903 c -0.215,-1.507 -0.669,-2.849 -1.348,-3.992 -0.751,-1.256 -1.692,-1.893 -2.798,-1.893 -1.105,0 -2.028,0.601 -2.743,1.786 -0.674,1.103 -1.015,2.375 -1.015,3.78 0,1.397 0.268,2.592 0.796,3.55 0.572,1.054 1.513,1.617 2.796,1.674 0.074,0.003 0.148,0.005 0.221,0.005 1.133,0 2.144,-0.393 3.011,-1.172 0.941,-0.862 1.305,-2.118 1.082,-3.735 -0.002,-0.002 -0.002,-0.002 -0.002,-0.003 z m -1.775,2.973 c -0.721,0.648 -1.537,0.943 -2.492,0.901 -0.908,-0.04 -1.541,-0.411 -1.935,-1.137 -0.444,-0.807 -0.669,-1.835 -0.669,-3.055 0,-1.212 0.291,-2.303 0.865,-3.244 0.524,-0.867 1.133,-1.289 1.861,-1.289 0.727,0 1.352,0.455 1.911,1.389 0.609,1.023 1.016,2.236 1.212,3.606 0.176,1.278 -0.072,2.204 -0.753,2.829 z"
       id="path21"
       style="fill:#5c3082;fill-opacity:1;stroke:#5c3082;stroke-opacity:1" /><path
       d="m 57.003,47.766 c -0.034,-0.283 -0.291,-0.484 -0.575,-0.45 -0.283,0.034 -0.485,0.292 -0.45,0.575 l 0.713,5.865 c 0.018,0.146 0.097,0.278 0.218,0.362 0.087,0.06 0.19,0.092 0.294,0.092 0.04,0 0.081,-0.005 0.121,-0.014 l 3.139,-0.754 c 0.138,-0.033 0.256,-0.121 0.327,-0.244 0.071,-0.123 0.088,-0.269 0.048,-0.405 l -1.477,-4.998 c -0.081,-0.273 -0.368,-0.43 -0.641,-0.349 -0.273,0.081 -0.43,0.368 -0.349,0.641 l 1.323,4.476 -2.047,0.492 z"
       id="path22"
       style="fill:#5c3082;fill-opacity:1;stroke:#5c3082;stroke-opacity:1" /><path
       d="m 51.95,56.715 c -0.282,-0.048 -0.547,0.143 -0.594,0.424 l -1.002,5.979 c -0.025,0.15 0.017,0.303 0.115,0.419 0.098,0.116 0.242,0.183 0.394,0.183 h 1.73 l -0.586,3.38 c -0.026,0.15 0.016,0.304 0.114,0.421 0.098,0.117 0.243,0.184 0.395,0.184 h 3.573 c 0.145,0 0.284,-0.061 0.382,-0.169 0.098,-0.108 0.146,-0.251 0.132,-0.396 l -0.171,-1.79 3.105,-0.501 c 0.281,-0.045 0.473,-0.31 0.427,-0.592 -0.045,-0.281 -0.31,-0.475 -0.592,-0.427 l -3.038,0.49 -0.072,-0.762 c -0.027,-0.284 -0.28,-0.488 -0.563,-0.465 -0.284,0.027 -0.492,0.279 -0.465,0.563 l 0.124,1.311 c 0,0.001 0,0.001 0,0.002 l 0.163,1.705 H 53.13 l 0.512,-2.953 h 0.701 c 0.153,0 0.297,-0.068 0.396,-0.184 0.098,-0.117 0.139,-0.271 0.113,-0.421 L 54.16,59.182 c -0.049,-0.281 -0.316,-0.47 -0.598,-0.419 -0.281,0.049 -0.468,0.317 -0.419,0.598 l 0.585,3.328 h -0.512 c -0.006,0 -0.012,0 -0.018,0 h -1.724 l 0.901,-5.377 c 0.046,-0.284 -0.143,-0.55 -0.425,-0.597 z"
       id="path23"
       style="fill:#5c3082;fill-opacity:1;stroke:#5c3082;stroke-opacity:1" /><path
       d="m 53.693,49.439 c -0.285,0 -0.516,0.231 -0.516,0.516 v 6.371 c 0,0.152 0.067,0.296 0.183,0.394 0.116,0.098 0.27,0.14 0.419,0.115 l 1.21,-0.205 0.285,3.527 c 0.012,0.144 0.083,0.277 0.197,0.366 0.091,0.071 0.203,0.109 0.317,0.109 0.028,0 0.057,-0.002 0.086,-0.007 l 3.139,-0.527 c 0.137,-0.023 0.26,-0.101 0.339,-0.215 0.079,-0.115 0.109,-0.256 0.083,-0.393 l -0.506,-2.592 c -0.055,-0.28 -0.326,-0.462 -0.606,-0.408 -0.28,0.055 -0.462,0.326 -0.408,0.606 l 0.405,2.071 -2.061,0.346 -0.247,-3.056 1.309,-0.221 c 0.281,-0.047 0.47,-0.314 0.423,-0.595 -0.047,-0.281 -0.312,-0.472 -0.595,-0.423 l -1.771,0.299 c -0.003,10e-4 -0.007,10e-4 -0.01,0.002 l -1.157,0.196 v -5.76 C 54.209,49.67 53.978,49.439 53.693,49.439 Z"
       id="path24"
       style="fill:#5c3082;fill-opacity:1;stroke:#5c3082;stroke-opacity:1" /></g></svg>
