<svg xmlns="http://www.w3.org/2000/svg" viewBox="0 0 64 80" x="0px" y="0px"><g data-name="Layer 34"><path d="M61.6,37.15l-9.88-7.385.592-.6a1,1,0,0,0,0-1.406l-5.17-5.224,1.135-3.44,5.435-5.492a1,1,0,0,0,0-1.406l-.7-.711,4.9-4.956a1,1,0,0,0,0-1.406L55.111,2.3a1.027,1.027,0,0,0-1.422,0L48.8,7.237l-.689-.7c-.007-.007-.017-.008-.023-.015a.986.986,0,0,0-.369-.229l-4.2-1.415a1,1,0,0,0-1.031.244l-.689.7-.689-.7a1,1,0,1,0-1.422,1.406l.7.712L23.6,24.213,21.511,22.1a1.027,1.027,0,0,0-1.422,0l-7,7.073a1,1,0,0,0,0,1.406l2.1,2.126-4.9,4.956,0,.007a1,1,0,0,0-.2.3.743.743,0,0,0-.03.105.948.948,0,0,0-.046.237.975.975,0,0,0,0,.132.921.921,0,0,0,0,.117l1.3,6.553L10.3,46.14,6.811,42.614a1,1,0,0,0-.71-.3h0a1,1,0,0,0-.709.3l-3.1,3.122a1,1,0,0,0,0,1.409l14,14.145a1,1,0,0,0,.71.3h0a1,1,0,0,0,.709-.3l3.1-3.121a1,1,0,0,0,0-1.408l-4.9-4.956,1.237-1.251,3.889-1.309,1.641-.236a2.96,2.96,0,0,1,3.193,1.929l3.794,10.405A1,1,0,0,0,30.6,62a.988.988,0,0,0,.319-.053l8.4-2.829a1,1,0,0,0,.6-1.338L35.142,46.515l8.069-8.154,1.488-1.5L54.8,44.41a1,1,0,0,0,1.31-.1l5.6-5.658a1,1,0,0,0-.112-1.5ZM16.872,48.536l-.675-.682-2.875-2.9-.7-3.519.463.467h0l5.872,5.934ZM46.689,17.857a1.022,1.022,0,0,0-.239.39l-1.326,4.021L36.189,31.3l-.248.251L20.8,46.847,15.207,41.2,47.4,8.666,49.61,10.9l1.279,1.293h0l.7.71ZM31.782,38.593l.929-.938A4.922,4.922,0,0,0,36.1,39.024a5.015,5.015,0,0,0,.979-.1l1.422-.288a1,1,0,0,0-.4-1.961l-1.421.288a2.922,2.922,0,0,1-2.561-.734l2.781-2.81,3.381,3.416.812.82-6.8,6.866Z"/><path d="M47.411,11.492A1,1,0,1,0,45.99,12.9l1.4,1.414a1,1,0,0,0,1.414.008,1,1,0,0,0,.007-1.414Z"/><path d="M45.311,13.614a1,1,0,1,0-1.421,1.407l1.4,1.414a1,1,0,1,0,1.42-1.407Z"/><path d="M43.21,15.736a1,1,0,1,0-1.42,1.407l1.4,1.414A1,1,0,1,0,44.61,17.15Z"/></g><text x="0" y="79" fill="#000000" font-size="5px" font-weight="bold" font-family="'Helvetica Neue', Helvetica, Arial-Unicode, Arial, Sans-serif">Created by Konkapp</text><text x="0" y="84" fill="#000000" font-size="5px" font-weight="bold" font-family="'Helvetica Neue', Helvetica, Arial-Unicode, Arial, Sans-serif">from the Noun Project</text></svg>